<svg height="512pt" viewBox="0 -28 512.00243 512" width="512pt" xmlns="http://www.w3.org/2000/svg"><path d="m152.589844 120.761719v62.042969c-34.320313-57.109376-15.84375-131.230469 41.269531-165.550782 57.109375-34.320312 131.230469-15.84375 165.550781 41.269532 22.980469 38.242187 22.980469 86.042968 0 124.28125v-62.042969c0-57.113281-46.296875-103.410157-103.410156-103.410157s-103.410156 46.296876-103.410156 103.410157zm189.144531-8.617188h-171.488281c4.753906-47.355469 46.996094-81.890625 94.351562-77.140625 40.785156 4.097656 73.042969 36.355469 77.136719 77.140625zm.441406 185.566407c-5.796875.011718-11.355469-2.285157-15.453125-6.382813-15.261718-15.261719-40.007812-15.261719-55.273437 0-8.652344 8.238281-22.246094 8.238281-30.902344 0-15.261719-15.261719-40.007813-15.261719-55.269531 0-4.097656 4.097656-9.660156 6.394531-15.453125 6.382813v-133.863282h16.753906c5.023437.011719 9.09375 4.082032 9.097656 9.109375v33.980469c0 14.277344 11.574219 25.851562 25.855469 25.851562 14.277344 0 25.851562-11.574218 25.851562-25.851562v-17.238281c0-4.757813 3.859376-8.617188 8.617188-8.617188s8.617188 3.859375 8.617188 8.617188v43.089843c0 14.277344 11.574218 25.851563 25.851562 25.851563s25.851562-11.574219 25.851562-25.851563v-60.445312c.011719-4.691406 3.816407-8.492188 8.507813-8.496094h17.347656zm0-151.097657h-17.347656c-14.207031.015625-25.722656 11.523438-25.742187 25.730469v60.445312c0 4.757813-3.855469 8.617188-8.617188 8.617188-4.757812 0-8.617188-3.859375-8.617188-8.617188v-43.089843c0-14.277344-11.574218-25.851563-25.851562-25.851563s-25.851562 11.574219-25.851562 25.851563v17.238281c0 4.757812-3.859376 8.617188-8.617188 8.617188-4.761719 0-8.617188-3.859376-8.617188-8.617188v-33.980469c-.015624-14.539062-11.796874-26.324219-26.335937-26.34375h-16.753906v-17.234375h172.351562zm0 0"/><path d="m256 396.519531c4.757812 0 8.617188 3.859375 8.617188 8.617188 0 4.761719-3.859376 8.617187-8.617188 8.617187s-8.617188-3.855468-8.617188-8.617187c0-4.757813 3.859376-8.617188 8.617188-8.617188zm-23.792969-1.480469-25.566406-5.121093c2.847656-9.28125 8.273437-17.566407 15.640625-23.894531l14.648438 21.792968c-1.964844 2.128906-3.5625 4.566406-4.722657 7.222656zm8.195313 59.367188 9.667968-24.132812c3.890626 1 7.96875 1 11.859376 0l9.667968 24.132812c-10.144531 3.246094-21.050781 3.246094-31.195312 0zm50.585937-87.304688c6.71875 6.203126 11.679688 14.078126 14.371094 22.816407l-25.566406 5.121093c-1.125-2.554687-2.65625-4.910156-4.53125-6.972656zm0 0"/><path d="m499.816406 316.4375-12.925781-12.925781c-8.65625-8.238281-22.25-8.238281-30.902344 0-15.269531 15.25-40.007812 15.25-55.273437 0-8.542969-8.511719-22.363282-8.511719-30.902344 0-15.269531 15.25-40.003906 15.25-55.273438 0-8.542968-8.511719-22.363281-8.511719-30.902343 0-15.269531 15.25-40.003907 15.25-55.273438 0-8.542969-8.511719-22.359375-8.511719-30.902343 0-15.269532 15.25-40.003907 15.25-55.273438 0-8.542969-8.511719-22.359375-8.511719-30.902344 0-15.269531 15.25-40.003906 15.25-55.273437 0-8.652344-8.238281-22.25-8.238281-30.902344 0l-12.925781 12.925781-12.183594-12.183594 12.925781-12.925781c15.269531-15.25 40.003907-15.25 55.273438 0 8.652343 8.238281 22.25 8.238281 30.902343 0 15.269532-15.25 40.003907-15.25 55.273438 0 8.542969 8.511719 22.359375 8.511719 30.902344 0 15.265625-15.261719 40.007812-15.261719 55.273437 0 8.652344 8.238281 22.25 8.238281 30.902344 0 15.261719-15.261719 40.007813-15.261719 55.273437 0 8.539063 8.511719 22.359376 8.511719 30.902344 0 15.265625-15.25 40.003906-15.25 55.273438 0 8.652344 8.238281 22.246094 8.238281 30.902344 0 15.265624-15.25 40.003906-15.25 55.269531 0l12.929687 12.925781zm0 0"/></svg>