<?xml version="1.0" encoding="UTF-8"?>
<svg width="48px" height="48px" viewBox="0 0 48 48" version="1.1" xmlns="http://www.w3.org/2000/svg" xmlns:xlink="http://www.w3.org/1999/xlink">
    <!-- Generator: Sketch 52.6 (67491) - http://www.bohemiancoding.com/sketch -->
    <title>ico/cascada</title>
    <desc>Created with Sketch.</desc>
    <g id="ico/cascada" stroke="none" stroke-width="1" fill="none" fill-rule="evenodd">
        <g id="iconfinder_weather-28_810003" transform="translate(23.268693, 23.403841) rotate(-240.000000) translate(-23.268693, -23.403841) translate(3.268693, 9.237175)" fill="#000000">
            <path d="M33.3333333,24.3333333 C32.1666667,24.3333333 31.3333333,23.6666667 31.3333333,23.6666667 C30.1666667,22.3333333 28.5,21.6666667 26.6666667,21.6666667 C24.8333333,21.6666667 23.1666667,22.3333333 22,23.6666667 C22,23.6666667 21.1666667,24.3333333 20,24.3333333 C18.8333333,24.3333333 18,23.6666667 18,23.6666667 C16.8333333,22.3333333 15.1666667,21.6666667 13.3333333,21.6666667 C11.1666667,21.6666667 8.66666667,23.6666667 8.66666667,23.6666667 C8.16666667,24 7.5,24.3333333 6.66666667,24.3333333 C5.5,24.3333333 4.66666667,23.6666667 4.66666667,23.6666667 C3.5,22.3333333 1.83333333,21.6666667 0,21.6666667 L0,25 C0.666666667,25 1.5,25.3333333 2,25.6666667 C2,25.6666667 4.83333333,27.6666667 6.66666667,27.6666667 C8.5,27.6666667 10,26.8333333 11.3333333,25.6666667 C11.3333333,25.6666667 12.5,25 13.3333333,25 C14.1666667,25 14.8333333,25.3333333 15.3333333,25.6666667 C15.3333333,25.6666667 18.1666667,27.6666667 20,27.6666667 C22.5,27.6666667 24.6666667,25.6666667 24.6666667,25.6666667 C25.1666667,25.3333333 25.8333333,25 26.6666667,25 C27.5,25 28.1666667,25.3333333 28.6666667,25.6666667 C28.6666667,25.6666667 31.5,27.6666667 33.3333333,27.6666667 C35.1666667,27.6666667 36.6666667,26.8333333 38,25.6666667 C38,25.6666667 39.1666667,25 40,25 L40,21.6666667 C37.8333333,21.6666667 35.3333333,23.6666667 35.3333333,23.6666667 C34.8333333,24 34,24.3333333 33.3333333,24.3333333 Z" id="Path"></path>
            <path d="M33.3333333,19.3333333 C31.5,19.3333333 28.6666667,17.3333333 28.6666667,17.3333333 C28.1666667,17 27.3333333,16.6666667 26.6666667,16.6666667 C26,16.6666667 25.1666667,17 24.6666667,17.3333333 C24.6666667,17.3333333 22.5,19.3333333 20,19.3333333 C18.1666667,19.3333333 15.3333333,17.3333333 15.3333333,17.3333333 C14.8333333,17 14,16.6666667 13.3333333,16.6666667 C12.6666667,16.6666667 11.3333333,17.3333333 11.3333333,17.3333333 C10,18.5 8.5,19.3333333 6.66666667,19.3333333 C4.83333333,19.3333333 2,17.3333333 2,17.3333333 C1.5,17 0.666666667,16.6666667 0,16.6666667 L0,18.3333333 C0.666666667,18.3333333 1.5,18.6666667 2,19 C2,19 4.83333333,21 6.66666667,21 C8.5,21 10,20.1666667 11.3333333,19 C11.3333333,19 12.5,18.3333333 13.3333333,18.3333333 C14.1666667,18.3333333 14.8333333,18.6666667 15.3333333,19 C15.3333333,19 18.1666667,21 20,21 C22.5,21 24.6666667,19 24.6666667,19 C25.1666667,18.6666667 25.8333333,18.3333333 26.6666667,18.3333333 C27.5,18.3333333 28.1666667,18.6666667 28.6666667,19 C28.6666667,19 31.5,21 33.3333333,21 C35.1666667,21 36.6666667,20.1666667 38,19 C38,19 39.1666667,18.3333333 40,18.3333333 L40,16.6666667 C39.3333333,16.6666667 38,17.3333333 38,17.3333333 C36.6666667,18.5 35.1666667,19.3333333 33.3333333,19.3333333 Z" id="Path"></path>
            <path d="M33.3333333,14.3333333 C31.5,14.3333333 28.6666667,12.3333333 28.6666667,12.3333333 C28.1666667,12 27.3333333,11.6666667 26.6666667,11.6666667 C26,11.6666667 25.1666667,12 24.6666667,12.3333333 C24.6666667,12.3333333 22.5,14.3333333 20,14.3333333 C18.1666667,14.3333333 15.3333333,12.3333333 15.3333333,12.3333333 C14.8333333,12 14,11.6666667 13.3333333,11.6666667 C12.6666667,11.6666667 11.3333333,12.3333333 11.3333333,12.3333333 C10,13.5 8.5,14.3333333 6.66666667,14.3333333 C4.83333333,14.3333333 2,12.3333333 2,12.3333333 C1.5,12 0.666666667,11.6666667 0,11.6666667 L0,13.3333333 C0.666666667,13.3333333 1.5,13.6666667 2,14 C2,14 4.83333333,16 6.66666667,16 C8.5,16 10,15.1666667 11.3333333,14 C11.3333333,14 12.5,13.3333333 13.3333333,13.3333333 C14.1666667,13.3333333 14.8333333,13.6666667 15.3333333,14 C15.3333333,14 18.1666667,16 20,16 C22.5,16 24.6666667,14 24.6666667,14 C25.1666667,13.6666667 25.8333333,13.3333333 26.6666667,13.3333333 C27.5,13.3333333 28.1666667,13.6666667 28.6666667,14 C28.6666667,14 31.5,16 33.3333333,16 C35.1666667,16 36.6666667,15.1666667 38,14 C38,14 39.1666667,13.3333333 40,13.3333333 L40,11.6666667 C39.3333333,11.6666667 38,12.3333333 38,12.3333333 C36.6666667,13.5 35.1666667,14.3333333 33.3333333,14.3333333 Z" id="Path"></path>
            <path d="M33.3333333,9.33333333 C31.5,9.33333333 28.6666667,7.33333333 28.6666667,7.33333333 C28.1666667,7 27.3333333,6.66666667 26.6666667,6.66666667 C26,6.66666667 25.1666667,7 24.6666667,7.33333333 C24.6666667,7.33333333 22.5,9.33333333 20,9.33333333 C18.1666667,9.33333333 15.3333333,7.33333333 15.3333333,7.33333333 C14.8333333,7 14,6.66666667 13.3333333,6.66666667 C12.6666667,6.66666667 11.3333333,7.33333333 11.3333333,7.33333333 C10,8.5 8.5,9.33333333 6.66666667,9.33333333 C4.83333333,9.33333333 2,7.33333333 2,7.33333333 C1.5,7 0.666666667,6.66666667 0,6.66666667 L0,8.33333333 C0.666666667,8.33333333 1.5,8.66666667 2,9 C2,9 4.83333333,11 6.66666667,11 C8.5,11 10,10.1666667 11.3333333,9 C11.3333333,9 12.6666667,8.33333333 13.3333333,8.33333333 C14,8.33333333 14.8333333,8.66666667 15.3333333,9 C15.3333333,9 18.1666667,11 20,11 C22.5,11 24.6666667,9 24.6666667,9 C25.1666667,8.66666667 26,8.33333333 26.6666667,8.33333333 C27.3333333,8.33333333 28.1666667,8.66666667 28.6666667,9 C28.6666667,9 31.5,11 33.3333333,11 C35.1666667,11 36.6666667,10.1666667 38,9 C38,9 39.1666667,8.33333333 40,8.33333333 L40,6.66666667 C39.3333333,6.66666667 38,7.33333333 38,7.33333333 C36.6666667,8.5 35.1666667,9.33333333 33.3333333,9.33333333 Z" id="Path"></path>
            <path d="M35.3333333,2 C34.8333333,2.33333333 34.1666667,2.66666667 33.3333333,2.66666667 C32.1666667,2.66666667 31.3333333,2 31.3333333,2 C30.1666667,0.666666667 28.5,0 26.6666667,0 C24.8333333,0 23.1666667,0.666666667 22,2 C22,2 21.1666667,2.66666667 20,2.66666667 C18.8333333,2.66666667 18,2 18,2 C16.8333333,0.666666667 15.1666667,0 13.3333333,0 C11.1666667,0 8.66666667,2 8.66666667,2 C8.16666667,2.33333333 7.33333333,2.66666667 6.66666667,2.66666667 C5.5,2.66666667 4.66666667,2 4.66666667,2 C3.5,0.666666667 1.83333333,0 0,0 L0,3.33333333 C0.666666667,3.33333333 1.5,3.66666667 2,4 C2,4 4.83333333,6 6.66666667,6 C8.5,6 10,5.16666667 11.3333333,4 C11.3333333,4 12.6666667,3.33333333 13.3333333,3.33333333 C14,3.33333333 14.8333333,3.66666667 15.3333333,4 C15.3333333,4 18.1666667,6 20,6 C22.5,6 24.6666667,4 24.6666667,4 C25.1666667,3.66666667 26,3.33333333 26.6666667,3.33333333 C27.3333333,3.33333333 28.1666667,3.66666667 28.6666667,4 C28.6666667,4 31.5,6 33.3333333,6 C35.1666667,6 36.6666667,5.16666667 38,4 C38,4 39.1666667,3.33333333 40,3.33333333 L40,0 C37.8333333,0 35.3333333,2 35.3333333,2 Z" id="Path"></path>
        </g>
    </g>
</svg>