<?xml version="1.0" encoding="utf-8"?>
<!-- Generator: Adobe Illustrator 17.0.0, SVG Export Plug-In . SVG Version: 6.00 Build 0)  -->
<!DOCTYPE svg PUBLIC "-//W3C//DTD SVG 1.1//EN" "http://www.w3.org/Graphics/SVG/1.1/DTD/svg11.dtd">
<svg version="1.1" id="Capa_1" xmlns="http://www.w3.org/2000/svg" xmlns:xlink="http://www.w3.org/1999/xlink" x="0px" y="0px"
	 width="40px" height="40px" viewBox="0 0 40 40" enable-background="new 0 0 40 40" xml:space="preserve">
<g>
	<path d="M36.7,27.4l-9-9c-0.3-0.3-0.9-0.3-1.2,0l-9,9c-0.3,0.3-0.3,0.9,0,1.2s0.9,0.3,1.2,0l7.6-7.6v16.1c0,0.5,0.4,0.9,0.9,0.9
		c0.5,0,0.9-0.4,0.9-0.9V21.1l7.6,7.6c0.2,0.2,0.4,0.3,0.6,0.3s0.4-0.1,0.6-0.3C37.1,28.3,37.1,27.8,36.7,27.4z"/>
	<path d="M22.6,11.4c-0.3-0.3-0.9-0.3-1.2,0l-7.6,7.6V2.9c0-0.5-0.4-0.9-0.9-0.9C12.4,2,12,2.4,12,2.9v16.1l-7.6-7.6
		c-0.3-0.3-0.9-0.3-1.2,0c-0.3,0.3-0.3,0.9,0,1.2l9,9c0.2,0.2,0.4,0.3,0.6,0.3s0.4-0.1,0.6-0.3l9-9C22.9,12.2,22.9,11.7,22.6,11.4z"
		/>
</g>
</svg>
