<?xml version="1.0" standalone="no"?>
<!DOCTYPE svg PUBLIC "-//W3C//DTD SVG 20010904//EN"
 "http://www.w3.org/TR/2001/REC-SVG-20010904/DTD/svg10.dtd">
<svg version="1.0" xmlns="http://www.w3.org/2000/svg"
 width="512.000000pt" height="512.000000pt" viewBox="0 0 512.000000 512.000000"
 preserveAspectRatio="xMidYMid meet">

<g transform="translate(0.000000,512.000000) scale(0.100000,-0.100000)"
fill="#000000" stroke="none">
<path d="M395 4806 c-37 -17 -70 -52 -84 -89 -7 -18 -11 -148 -11 -355 0 -365
1 -373 70 -419 29 -20 46 -23 131 -23 l99 0 0 -153 0 -153 -76 -17 c-194 -42
-365 -175 -452 -352 -72 -145 -67 -51 -70 -1250 -3 -1214 -5 -1168 70 -1325
33 -70 56 -100 127 -170 94 -93 162 -134 281 -172 l75 -23 2005 0 2005 0 75
23 c120 38 187 79 281 172 70 70 94 102 127 170 75 157 73 111 70 1325 l-3
1080 -31 86 c-72 201 -214 344 -416 417 l-73 27 -1392 3 -1393 2 0 155 0 155
98 0 c118 0 153 16 183 85 19 42 20 64 17 379 -3 320 -4 336 -24 362 -11 15
-33 37 -48 48 -27 21 -37 21 -819 23 -645 2 -798 0 -822 -11z m1415 -436 l0
-150 -605 0 -605 0 0 150 0 150 605 0 605 0 0 -150z m-305 -605 l0 -150 -300
0 -300 0 -3 140 c-1 76 0 145 2 152 4 11 65 13 303 11 l298 -3 0 -150z m3098
-482 c70 -33 149 -113 183 -186 l29 -62 0 -1080 0 -1080 -23 -49 c-31 -67 -82
-127 -139 -164 -103 -66 30 -62 -2093 -62 -2123 0 -1990 -4 -2093 62 -57 37
-108 97 -139 164 l-23 49 0 1080 0 1080 28 60 c30 63 90 132 145 167 79 49
-12 47 2097 45 l1980 -2 48 -22z"/>
<path d="M695 2496 c-53 -24 -95 -85 -95 -138 0 -12 9 -40 20 -63 26 -54 75
-81 162 -88 72 -7 95 -17 227 -96 109 -66 191 -92 312 -98 152 -9 285 29 414
117 70 48 123 70 183 76 92 10 155 -9 269 -80 145 -90 216 -111 373 -111 157
0 228 21 373 111 114 71 177 90 269 80 63 -6 89 -17 217 -95 109 -66 191 -92
312 -98 152 -9 285 29 414 117 74 51 125 71 193 77 88 7 136 34 163 90 34 70
15 136 -55 187 -23 18 -41 21 -114 20 -112 -1 -209 -34 -332 -110 -115 -71
-148 -83 -235 -83 -85 0 -121 12 -221 74 -113 71 -162 92 -255 111 -164 33
-321 4 -469 -88 -149 -91 -154 -93 -260 -93 -105 0 -107 1 -260 94 -123 75
-197 96 -345 95 -104 0 -130 -4 -197 -27 -42 -14 -118 -52 -168 -83 -115 -71
-148 -83 -235 -83 -87 0 -120 12 -234 82 -110 69 -141 82 -236 102 -90 18
-150 19 -190 1z"/>
</g>
</svg>
