<svg id="Capa_1" enable-background="new 0 0 512 512" height="512" viewBox="0 0 512 512" width="512" xmlns="http://www.w3.org/2000/svg" xmlns:xlink="http://www.w3.org/1999/xlink"><linearGradient id="SVGID_1_" gradientUnits="userSpaceOnUse" x1="256" x2="256" y1="512" y2="0"><stop offset="0" stop-color="#009efd"/><stop offset="1" stop-color="#2af598"/></linearGradient><g><g><path d="m256 271.315c-10.623-9.519-24.647-15.315-40-15.315h-60v160h60c11.028 0 20 8.972 20 20h40c0-11.028 8.972-20 20-20h60v-160h-60c-15.353 0-29.377 5.796-40 15.315zm-20 108.126c-6.26-2.22-12.989-3.441-20-3.441h-20v-80h20c11.028 0 20 8.972 20 20zm80-3.441h-20c-7.011 0-13.74 1.221-20 3.441v-63.441c0-11.028 8.972-20 20-20h20zm-60-376-256 179.617 23.117 32.742 24.883-17.461v317.102h416v-317.102l24.883 17.462 23.117-32.743zm168 472h-336v-305.172l168-117.962 168 117.961zm-228-318.4c0 33.084 26.916 60 60 60s60-26.916 60-60-26.916-60-60-60-60 26.916-60 60zm80 0c0 11.028-8.972 20-20 20s-20-8.972-20-20 8.972-20 20-20 20 8.972 20 20z" fill="url(#SVGID_1_)"/></g></g></svg>