<?xml version="1.0" encoding="UTF-8"?>
<svg width="48px" height="48px" viewBox="0 0 48 48" version="1.1" xmlns="http://www.w3.org/2000/svg" xmlns:xlink="http://www.w3.org/1999/xlink">
    <!-- Generator: Sketch 52.6 (67491) - http://www.bohemiancoding.com/sketch -->
    <title>ico/focos</title>
    <desc>Created with Sketch.</desc>
    <g id="ico/focos" stroke="none" stroke-width="1" fill="none" fill-rule="evenodd">
        <path d="M43.8413793,24.5 C43.8413793,21.023749 41.1429985,18.3278734 36.4142225,16.4585621 C32.7153388,14.9963729 27.9290984,14.1694915 24.4193633,14.1694915 C21.8535122,14.1694915 20.2546172,15.1317405 19.3123762,17.0401241 C18.4854334,18.7149864 18.1586207,21.0632326 18.1586207,24.5 C18.1586207,27.9367674 18.4854334,30.2850136 19.3123762,31.9598759 C20.2546172,33.8682595 21.8535122,34.8305085 24.4193633,34.8305085 C27.9290984,34.8305085 32.7153388,34.0036271 36.4142225,32.5414379 C41.1429985,30.6721266 43.8413793,27.976251 43.8413793,24.5 Z M45,24.5 C45,28.5679162 41.9599231,31.6051706 36.8367288,33.6303977 C32.9964344,35.1484873 28.0676203,36 24.4193633,36 C21.4213472,36 19.4170406,34.7937656 18.2753992,32.4815233 C17.3476561,30.6025033 17,28.1044913 17,24.5 C17,20.8955087 17.3476561,18.3974967 18.2753992,16.5184767 C19.4170406,14.2062344 21.4213472,13 24.4193633,13 C28.0676203,13 32.9964344,13.8515127 36.8367288,15.3696023 C41.9599231,17.3948294 45,20.4320838 45,24.5 Z" id="Path" stroke="#000000" stroke-width="0.5" fill="#000000" fill-rule="nonzero"></path>
        <path d="M23.5719974,31.8969756 C23.8774577,31.9747301 24.0608149,32.2806294 23.9815372,32.5802207 C23.9022595,32.8798121 23.5903677,33.0596464 23.2849074,32.9818919 C20.9923605,32.3983272 20,30.0269895 20,24.4676023 C20,19.1260185 20.9175822,16.7284127 23.0200992,16.0297871 C23.3189921,15.9304708 23.6433817,16.0876042 23.7446436,16.3807543 C23.8459055,16.6739045 23.6856939,16.9920615 23.386801,17.0913778 C21.8975534,17.5862258 21.1428175,19.5583209 21.1428175,24.4676023 C21.1428175,29.5722356 21.9420494,31.4820745 23.5719974,31.8969756 Z" id="Path" stroke="#000000" stroke-width="0.5" fill="#000000" fill-rule="nonzero"></path>
        <path d="M14.45,18 C14.7537566,18 15,18.2238576 15,18.5 C15,18.7761424 14.7537566,19 14.45,19 L4.55,19 C4.24624339,19 4,18.7761424 4,18.5 C4,18.2238576 4.24624339,18 4.55,18 L14.45,18 Z" id="Path" stroke="#000000" stroke-width="0.5" fill="#000000" fill-rule="nonzero" transform="translate(9.500000, 18.500000) rotate(-345.000000) translate(-9.500000, -18.500000) "></path>
        <path d="M14.45,24 C14.7537566,24 15,24.2238576 15,24.5 C15,24.7761424 14.7537566,25 14.45,25 L4.55,25 C4.24624339,25 4,24.7761424 4,24.5 C4,24.2238576 4.24624339,24 4.55,24 L14.45,24 Z" id="Path" stroke="#000000" stroke-width="0.5" fill="#000000" fill-rule="nonzero"></path>
        <path d="M14.45,30 C14.7537566,30 15,30.2238576 15,30.5 C15,30.7761424 14.7537566,31 14.45,31 L4.55,31 C4.24624339,31 4,30.7761424 4,30.5 C4,30.2238576 4.24624339,30 4.55,30 L14.45,30 Z" id="Path" stroke="#000000" stroke-width="0.5" fill="#000000" fill-rule="nonzero" transform="translate(9.500000, 30.500000) rotate(-15.000000) translate(-9.500000, -30.500000) "></path>
    </g>
</svg>