<?xml version="1.0" encoding="iso-8859-1"?>
<!-- Generator: Adobe Illustrator 19.0.0, SVG Export Plug-In . SVG Version: 6.00 Build 0)  -->
<svg version="1.1" id="Capa_1" xmlns="http://www.w3.org/2000/svg" xmlns:xlink="http://www.w3.org/1999/xlink" x="0px" y="0px"
	 viewBox="0 0 512 512" style="enable-background:new 0 0 512 512;" xml:space="preserve">
<path style="fill:#E0230D;" d="M258.82,7.52v496.96C394.76,502.97,504.5,392.3,504.5,256S394.76,9.03,258.82,7.52z"/>
<path style="fill:#FF5440;" d="M258.82,7.52C378.19,9.24,474.5,119.83,474.5,256s-96.31,246.76-215.68,248.48
	c-0.94,0.01-1.88,0.02-2.82,0.02C118.76,504.5,7.5,393.24,7.5,256S118.76,7.5,256,7.5C256.94,7.5,257.88,7.51,258.82,7.52z"/>
<path style="fill:#C6E8FF;" d="M408.81,145.62l-15.72,15.72L265.24,444.18c45.15-2.189,89.64-20.479,124.05-54.89
	C455.57,323.01,462.07,219.26,408.81,145.62z"/>
<path style="fill:#FFFFFF;" d="M393.09,161.34c13.62,27.82,21.41,60.15,21.41,94.66c0,100.42-66.02,182.5-149.26,188.18
	c-0.06,0.01-0.12,0.01-0.18,0.01c-41.77,1.99-84.08-9.8-119.44-35.38L393.09,161.34z"/>
<path style="fill:#C6E8FF;" d="M366.38,103.19l-8.45,8.45l-92.51-43.81C301.03,69.59,336.23,81.38,366.38,103.19z"/>
<path style="fill:#FFFFFF;" d="M357.93,111.64L103.19,366.38c-53.26-73.64-46.76-177.39,19.52-243.67
	c39.14-39.14,91.35-57.44,142.71-54.88C300.55,70.28,332.62,86.34,357.93,111.64z"/>
<path d="M437.02,74.98C388.668,26.629,324.38,0,256,0S123.332,26.629,74.98,74.98S0,187.62,0,256s26.629,132.668,74.98,181.02
	S187.62,512,256,512s132.668-26.629,181.02-74.98S512,324.38,512,256S485.371,123.332,437.02,74.98z M256,497
	C123.112,497,15,388.888,15,256S123.112,15,256,15s241,108.112,241,241S388.888,497,256,497z"/>
<path d="M414.885,141.223c-1.287-1.78-3.291-2.906-5.48-3.081c-2.183-0.173-4.347,0.619-5.9,2.173l-263.19,263.189
	c-1.553,1.554-2.348,3.71-2.173,5.9c0.175,2.189,1.302,4.193,3.081,5.48c33.485,24.217,73.18,37.019,114.791,37.021
	c52.408,0,101.619-20.354,138.578-57.313c33.102-33.103,53.26-77.075,56.761-123.817
	C454.815,224.537,441.864,178.528,414.885,141.223z M383.985,383.986c-34.127,34.127-79.574,52.921-127.97,52.919
	c-35.458-0.002-69.401-10.06-98.717-29.171l250.438-250.439C454.488,228.871,445.093,322.879,383.985,383.986z"/>
<path d="M373.857,102.595c-0.175-2.189-1.302-4.193-3.081-5.48c-35.162-25.431-78.567-38.521-122.247-36.874
	c-43.903,1.661-86.397,18.205-119.654,46.585c-3.151,2.688-3.525,7.423-0.837,10.573c2.688,3.151,7.422,3.525,10.573,0.837
	c61.433-52.422,149.076-57.706,216.092-13.973l-250.439,250.44c-43.735-67.017-38.45-154.661,13.972-216.091
	c2.688-3.15,2.314-7.885-0.837-10.573c-3.15-2.688-7.885-2.313-10.573,0.837c-28.38,33.256-44.924,75.75-46.585,119.653
	c-1.651,43.67,11.444,87.085,36.875,122.247c1.287,1.78,3.291,2.906,5.48,3.081c0.2,0.016,0.398,0.023,0.598,0.023
	c1.98,0,3.891-0.785,5.303-2.196l263.188-263.189C373.237,106.941,374.032,104.785,373.857,102.595z"/>
<g>
</g>
<g>
</g>
<g>
</g>
<g>
</g>
<g>
</g>
<g>
</g>
<g>
</g>
<g>
</g>
<g>
</g>
<g>
</g>
<g>
</g>
<g>
</g>
<g>
</g>
<g>
</g>
<g>
</g>
</svg>
