<svg xmlns="http://www.w3.org/2000/svg" width="51.414" height="48.003" viewBox="0 0 51.414 48.003">
  <g id="outline" transform="translate(-2 -3.98)">
    <path id="Trazado_62" data-name="Trazado 62" d="M52.557,41.7H49.986v-.857a.857.857,0,0,0-.857-.857H45.7a.857.857,0,0,0-.857.857V41.7h-6a.857.857,0,0,0-.857.857H32.848V40.844a.857.857,0,0,0-.857-.857h-.857V37.91a17.138,17.138,0,1,0-6.855,0v2.077h-.857a.857.857,0,0,0-.857.857v1.714H17.424a.857.857,0,0,0-.857-.857h-6v-.857a.857.857,0,0,0-.857-.857H6.285a.857.857,0,0,0-.857.857V41.7H2.857A.857.857,0,0,0,2,42.558v6.855a.857.857,0,0,0,.857.857H5.428v.857a.857.857,0,0,0,.857.857H9.712a.857.857,0,0,0,.857-.857V50.27h6a.857.857,0,0,0,.857-.857h5.141v1.714a.857.857,0,0,0,.857.857h8.569a.857.857,0,0,0,.857-.857V49.413H37.99a.857.857,0,0,0,.857.857h6v.857a.857.857,0,0,0,.857.857H49.13a.857.857,0,0,0,.857-.857V50.27h2.571a.857.857,0,0,0,.857-.857V42.558A.857.857,0,0,0,52.557,41.7ZM5.428,48.556H3.714V43.415H5.428ZM8.855,50.27H7.141V41.7H8.855Zm6.855-1.714H10.569V43.415H15.71ZM12.283,21.135a15.424,15.424,0,1,1,17.86,15.213.857.857,0,0,0-.722.846v2.793H25.993V37.193a.857.857,0,0,0-.722-.846A15.339,15.339,0,0,1,12.283,21.135ZM37.99,47.7h-6a.857.857,0,0,0-.857.857V50.27H24.279V48.556a.857.857,0,0,0-.857-.857h-6V44.271h6a.857.857,0,0,0,.857-.857V41.7h6.855v1.714a.857.857,0,0,0,.857.857h6Zm6.855.857H39.7V43.415h5.141Zm3.428,1.714H46.559V41.7h1.714ZM51.7,48.556H49.986V43.415H51.7Z" fill="#fff"/>
    <path id="Trazado_63" data-name="Trazado 63" d="M43.421,21.71a13.71,13.71,0,1,0-13.71,13.71,13.71,13.71,0,0,0,13.71-13.71ZM22.249,27.96l-1.595,1.595a12.047,12.047,0,0,1-1.379-1.946l2.38-1.785-1.028-1.371-2.1,1.573a11.88,11.88,0,0,1-.771-3.458h2.526V20.854H17.758a11.847,11.847,0,0,1,.6-3l2.4,1.2.766-1.534-2.493-1.246a12.054,12.054,0,0,1,1.623-2.4l1.595,1.595,1.212-1.212L21.87,12.663A11.947,11.947,0,0,1,23.956,11.2l1.617,2.426L27,12.674l-1.457-2.188a11.848,11.848,0,0,1,3.311-.729v2.527h1.714V9.758a11.848,11.848,0,0,1,3.316.721l-1.457,2.188,1.426.951,1.617-2.426a11.947,11.947,0,0,1,2.087,1.464l-1.595,1.595,1.212,1.212,1.595-1.595a12.054,12.054,0,0,1,1.623,2.4L37.9,17.516l.766,1.534,2.4-1.2a11.847,11.847,0,0,1,.6,3H39.136v1.714h2.527a11.911,11.911,0,0,1-.97,3.953l-2.757-2.063-1.028,1.371,2.968,2.228a12.09,12.09,0,0,1-1.518,1.954l-2.044-2.044L35.1,29.173l1.982,1.982a11.929,11.929,0,0,1-15.219-.387l1.595-1.595Z" transform="translate(-2.003 -0.575)" fill="#fff"/>
    <path id="Trazado_64" data-name="Trazado 64" d="M14,52h1.714v1.714H14Z" transform="translate(-1.717 -6.872)" fill="#fff"/>
    <path id="Trazado_65" data-name="Trazado 65" d="M29,52h1.714v1.714H29Z" transform="translate(-3.864 -6.872)" fill="#fff"/>
    <path id="Trazado_66" data-name="Trazado 66" d="M33,52h1.714v1.714H33Z" transform="translate(-4.436 -6.872)" fill="#fff"/>
    <path id="Trazado_67" data-name="Trazado 67" d="M48,52h1.714v1.714H48Z" transform="translate(-6.583 -6.872)" fill="#fff"/>
    <path id="Trazado_68" data-name="Trazado 68" d="M29,31h1.714v1.714H29Z" transform="translate(-3.864 -3.867)" fill="#fff"/>
    <path id="Trazado_69" data-name="Trazado 69" d="M33,31h1.714v1.714H33Z" transform="translate(-4.436 -3.867)" fill="#fff"/>
    <path id="Trazado_70" data-name="Trazado 70" d="M25.857,29a.857.857,0,0,0,.606-.251l3.428-3.428.005-.008a2.534,2.534,0,0,0,1.1.259A2.571,2.571,0,0,0,33.569,23a2.534,2.534,0,0,0-.257-1.1l.008-.005,3.428-3.428a.857.857,0,1,0-1.212-1.212l-3.428,3.428-.005.008a2.534,2.534,0,0,0-1.1-.259A2.571,2.571,0,0,0,28.427,23a2.534,2.534,0,0,0,.257,1.1l-.008.005-3.428,3.428A.857.857,0,0,0,25.857,29ZM31,22.141a.857.857,0,1,1-.857.857A.857.857,0,0,1,31,22.141Z" transform="translate(-3.291 -1.863)" fill="#fff"/>
  </g>
</svg>
