<svg id="Layer_1" enable-background="new 0 0 512 512" height="512" viewBox="0 0 512 512" width="512" xmlns="http://www.w3.org/2000/svg"><path d="m144 388.305v-188.305c0-8.836-7.164-16-16-16s-16 7.164-16 16v188.305c-9.555 5.542-16 15.877-16 27.695 0 17.645 14.355 32 32 32s32-14.355 32-32c0-11.818-6.445-22.153-16-27.695z"/><path d="m200 72c0-39.701-32.299-72-72-72s-72 32.299-72 72h-40c-8.836 0-16 7.164-16 16s7.164 16 16 16h40v32h-16c-8.836 0-16 7.164-16 16s7.164 16 16 16h16v32h-40c-8.836 0-16 7.164-16 16s7.164 16 16 16h40v32h-16c-8.836 0-16 7.164-16 16s7.164 16 16 16h16v32h-40c-8.836 0-16 7.164-16 16s7.164 16 16 16h34.027c-45.157 62.528-.678 152 77.973 152 82.613 0 126.291-98.133 72-159.486zm-72 408c-57.245 0-85.498-69.771-44.797-109.687 3.068-3.009 4.797-7.126 4.797-11.423v-286.89c0-22.056 17.944-40 40-40s40 17.944 40 40v286.889c0 4.297 1.729 8.415 4.797 11.423 40.706 39.921 12.438 109.688-44.797 109.688z"/><path d="m464 48h-128c-26.467 0-48 21.533-48 48v320c0 26.467 21.533 48 48 48h128c26.467 0 48-21.533 48-48v-320c0-26.467-21.533-48-48-48zm-128 32h128c8.822 0 16 7.178 16 16v144h-160v-144c0-8.822 7.178-16 16-16zm128 352h-128c-8.822 0-16-7.178-16-16v-144h160v144c0 8.822-7.178 16-16 16z"/><path d="m368 176h16v16c0 8.836 7.164 16 16 16s16-7.164 16-16v-16h16c8.836 0 16-7.164 16-16s-7.164-16-16-16h-16v-16c0-8.836-7.164-16-16-16s-16 7.164-16 16v16h-16c-8.836 0-16 7.164-16 16s7.164 16 16 16z"/><path d="m432 336h-64c-8.836 0-16 7.164-16 16s7.164 16 16 16h64c8.836 0 16-7.164 16-16s-7.164-16-16-16z"/></svg>