<svg xmlns="http://www.w3.org/2000/svg" width="49" height="37.42" viewBox="0 0 49 37.42">
  <g id="_747997" data-name="747997" transform="translate(0 -60.5)">
    <g id="Grupo_1309" data-name="Grupo 1309" transform="translate(0 60.5)">
      <path id="Trazado_3152" data-name="Trazado 3152" d="M47.086,82.607A1.914,1.914,0,0,0,49,80.693V68.156A7.665,7.665,0,0,0,41.344,60.5H7.656A7.665,7.665,0,0,0,0,68.156V90.264A7.665,7.665,0,0,0,7.656,97.92H41.344A7.665,7.665,0,0,0,49,90.264a1.914,1.914,0,0,0-3.828,0,3.832,3.832,0,0,1-3.828,3.828H7.656a3.832,3.832,0,0,1-3.828-3.828v-21.7L20.457,78.9a7.609,7.609,0,0,0,8.086,0l16.629-10.34V80.693A1.914,1.914,0,0,0,47.086,82.607ZM26.521,75.651a3.8,3.8,0,0,1-4.043,0L5.425,65.047a3.807,3.807,0,0,1,2.231-.719H41.344a3.807,3.807,0,0,1,2.231.719Z" transform="translate(0 -60.5)" fill="#212121"/>
    </g>
  </g>
</svg>
