<svg xmlns="http://www.w3.org/2000/svg" width="46.789" height="42.261" viewBox="0 0 46.789 42.261">
  <g id="Icono_depuradora" data-name="Icono depuradora" transform="translate(-1 -4)">
    <path id="Trazado_1135" data-name="Trazado 1135" d="M37.075,16A12.075,12.075,0,1,0,49.149,28.075,12.089,12.089,0,0,0,37.075,16Zm0,22.327-2.069-2.069,1.319-2.2a6.135,6.135,0,0,0,.749.051Zm0-5.725A4.528,4.528,0,1,1,41.6,28.075,4.533,4.533,0,0,1,37.075,32.6Zm-4.267-8.795-2.983-2.982H32.75l.623,2.491A6.023,6.023,0,0,0,32.808,23.808Zm-1.77,4.267H26.822l2.069-2.069,2.2,1.319A6.135,6.135,0,0,0,31.037,28.075Zm1.77,4.267-2.982,2.982V32.4l2.491-.623A5.937,5.937,0,0,0,32.808,32.341Zm4.267-14.52,2.069,2.069-1.319,2.2a6.135,6.135,0,0,0-.749-.051Zm4.267,14.52,2.982,2.982H41.4l-.623-2.491A5.937,5.937,0,0,0,41.341,32.341Zm1.77-4.267h4.216l-2.069,2.069-2.2-1.319A6.135,6.135,0,0,0,43.112,28.075Zm-1.77-4.267,2.982-2.983V23.75l-2.491.623A6.022,6.022,0,0,0,41.341,23.808Zm-1.206-.928a5.963,5.963,0,0,0-.789-.395l1.7-2.828L39.1,17.709a10.506,10.506,0,0,1,4.295,1.917Zm-4.57-.644a5.948,5.948,0,0,0-.838.276l-.8-3.2H31.172a10.507,10.507,0,0,1,4.393-1.686ZM31.88,25.014a5.962,5.962,0,0,0-.395.789l-2.828-1.7-1.948,1.949a10.506,10.506,0,0,1,1.917-4.295Zm-.644,4.57a5.948,5.948,0,0,0,.276.838l-3.2.8v2.756a10.506,10.506,0,0,1-1.685-4.393Zm2.778,3.686a5.962,5.962,0,0,0,.789.395l-1.7,2.828,1.949,1.948a10.5,10.5,0,0,1-4.295-1.917Zm4.57.644a5.948,5.948,0,0,0,.838-.276l.8,3.2h2.756a10.506,10.506,0,0,1-4.393,1.685Zm3.686-2.778a5.962,5.962,0,0,0,.395-.789l2.828,1.7L47.441,30.1a10.5,10.5,0,0,1-1.917,4.295Zm.644-4.57a5.949,5.949,0,0,0-.276-.838l3.2-.8V22.172a10.507,10.507,0,0,1,1.686,4.393Z" transform="translate(-5.888 -2.944)" fill="#212121"/>
    <path id="Trazado_1136" data-name="Trazado 1136" d="M40.019,28a3.019,3.019,0,1,0,3.019,3.019A3.022,3.022,0,0,0,40.019,28Zm0,4.528a1.509,1.509,0,1,1,1.509-1.509A1.511,1.511,0,0,1,40.019,32.528Z" transform="translate(-8.832 -5.888)" fill="#212121"/>
    <path id="Trazado_1137" data-name="Trazado 1137" d="M20.264,48a2.264,2.264,0,1,0,2.264,2.264A2.267,2.267,0,0,0,20.264,48Zm0,3.019a.755.755,0,1,1,.755-.755A.756.756,0,0,1,20.264,51.019Z" transform="translate(-4.171 -10.795)" fill="#212121"/>
    <path id="Trazado_1138" data-name="Trazado 1138" d="M47.789,9.283A5.288,5.288,0,0,0,42.506,4H28.923A5.288,5.288,0,0,0,23.64,9.283V10.35c-.175.09-.349.181-.52.277A3.01,3.01,0,0,0,17.6,12.3a2.983,2.983,0,0,0,.9,2.134,16.772,16.772,0,0,0-1.654,2.342V15.32a2.267,2.267,0,0,0-2.264-2.264H13.075a2.267,2.267,0,0,0-2.264,2.264v2.264H9.3V12.3a2.267,2.267,0,0,0-2.264-2.264H5.528A2.267,2.267,0,0,0,3.264,12.3v5.283A2.267,2.267,0,0,0,1,19.848V30.413a2.267,2.267,0,0,0,2.264,2.264v6.792a2.267,2.267,0,0,0,2.264,2.264H7.037A2.267,2.267,0,0,0,9.3,39.469V32.677h1.509v6.792a5.288,5.288,0,0,0,5.283,5.283h9.949a2.261,2.261,0,0,0,2.125,1.509h1.509A2.267,2.267,0,0,0,31.941,44V41.714A16.622,16.622,0,0,0,47.789,25.131c0-.253-.008-.5-.019-.755h.019ZM20.621,10.792a1.5,1.5,0,0,1,1.213.629,16.7,16.7,0,0,0-2.3,1.9,1.473,1.473,0,0,1-.42-1.019A1.511,1.511,0,0,1,20.621,10.792ZM14.656,23.621H13.075v1.509h1.509a16.653,16.653,0,0,0,.28,3.019H5.528V22.112h9.336c-.091.5-.162,1-.208,1.509Zm-2.336-8.3a.756.756,0,0,1,.755-.755h1.509a.756.756,0,0,1,.755.755v2.264H12.32ZM4.773,12.3a.756.756,0,0,1,.755-.755H7.037a.756.756,0,0,1,.755.755v5.283H4.773ZM2.509,30.413V19.848a.756.756,0,0,1,.755-.755H15.725q-.29.738-.509,1.509H5.528a1.511,1.511,0,0,0-1.509,1.509v6.037a1.511,1.511,0,0,0,1.509,1.509h9.689q.218.771.509,1.509H3.264a.756.756,0,0,1-.755-.755Zm5.283,9.056a.756.756,0,0,1-.755.755H5.528a.756.756,0,0,1-.755-.755V32.677H7.792Zm4.528,0V32.677h4.086a16.686,16.686,0,0,0,9.5,8.19v2.376H16.093a3.778,3.778,0,0,1-3.773-3.773Zm17.357,5.283H28.168A.756.756,0,0,1,27.413,44V41.3a16.564,16.564,0,0,0,3.019.419V44A.756.756,0,0,1,29.677,44.752Zm1.509-4.528A15.093,15.093,0,1,1,46.28,25.131,15.11,15.11,0,0,1,31.186,40.224Zm0-31.7a16.514,16.514,0,0,0-6.037,1.141V9.283a3.778,3.778,0,0,1,3.773-3.773H42.506A3.778,3.778,0,0,1,46.28,9.283v8.944a16.621,16.621,0,0,0-15.093-9.7Z" fill="#212121"/>
    <path id="Trazado_1139" data-name="Trazado 1139" d="M56.264,8a2.264,2.264,0,1,0,2.264,2.264A2.267,2.267,0,0,0,56.264,8Zm0,3.019a.755.755,0,1,1,.755-.755A.756.756,0,0,1,56.264,11.019Z" transform="translate(-13.003 -0.981)" fill="#212121"/>
    <path id="Trazado_1140" data-name="Trazado 1140" d="M9,30h1.509v1.509H9Z" transform="translate(-1.963 -6.379)" fill="#212121"/>
    <path id="Trazado_1141" data-name="Trazado 1141" d="M13,30h1.509v1.509H13Z" transform="translate(-2.944 -6.379)" fill="#212121"/>
  </g>
</svg>
