<svg xmlns="http://www.w3.org/2000/svg" width="39.553" height="39.293" viewBox="0 0 39.553 39.293">
  <g id="_66163" data-name="66163" transform="translate(0.251 -1.415)">
    <g id="Layer_2_16_" transform="translate(0 1.688)">
      <g id="Grupo_1139" data-name="Grupo 1139" transform="translate(0 0)">
        <path id="Trazado_3077" data-name="Trazado 3077" d="M254.927,423.2c-.322.08-.65.152-.976.211a1.57,1.57,0,0,0,.572,3.087c.388-.072.779-.157,1.163-.253a1.57,1.57,0,0,0-.759-3.046Z" transform="translate(-231.457 -387.775)" fill="#212121" stroke="#fff" stroke-width="0.5"/>
        <path id="Trazado_3078" data-name="Trazado 3078" d="M412.915,139.3a1.57,1.57,0,0,0,2.981-.987c-.124-.375-.262-.751-.408-1.118a1.57,1.57,0,1,0-2.915,1.166C412.7,138.671,412.811,138.987,412.915,139.3Z" transform="translate(-377.836 -124.918)" fill="#212121" stroke="#fff" stroke-width="0.5"/>
        <path id="Trazado_3079" data-name="Trazado 3079" d="M322.5,394.172c-.277.183-.563.36-.851.526a1.57,1.57,0,1,0,1.569,2.719c.342-.2.683-.407,1.013-.626a1.57,1.57,0,0,0-1.731-2.62Z" transform="translate(-293.931 -360.986)" fill="#212121" stroke="#fff" stroke-width="0.5"/>
        <path id="Trazado_3080" data-name="Trazado 3080" d="M430.773,208.82a1.57,1.57,0,1,0-3.137.123c.013.331.016.667.009,1a1.57,1.57,0,1,0,3.139.069C430.792,209.615,430.789,209.215,430.773,208.82Z" transform="translate(-391.737 -190.05)" fill="#212121" stroke="#fff" stroke-width="0.5"/>
        <path id="Trazado_3081" data-name="Trazado 3081" d="M379.953,344.383a1.569,1.569,0,0,0-2.2.314c-.2.266-.409.528-.624.781a1.57,1.57,0,0,0,.178,2.213c.038.032.076.061.115.089a1.57,1.57,0,0,0,2.1-.266c.257-.3.507-.615.745-.932A1.57,1.57,0,0,0,379.953,344.383Z" transform="translate(-345.129 -315.327)" fill="#212121" stroke="#fff" stroke-width="0.5"/>
        <path id="Trazado_3082" data-name="Trazado 3082" d="M416.15,279.424a1.57,1.57,0,0,0-1.967,1.028c-.1.316-.209.634-.328.945a1.57,1.57,0,0,0,2.934,1.118c.141-.37.272-.748.39-1.123A1.57,1.57,0,0,0,416.15,279.424Z" transform="translate(-379.019 -256.043)" fill="#212121" stroke="#fff" stroke-width="0.5"/>
        <path id="Trazado_3083" data-name="Trazado 3083" d="M16.621,37.34a16.21,16.21,0,0,1-4.027-1.28c-.015-.008-.029-.017-.044-.024-.3-.142-.6-.293-.892-.452l0,0a16.745,16.745,0,0,1-1.562-.976A16.382,16.382,0,0,1,10.16,7.773l.056-.039a16.41,16.41,0,0,1,18.391-.147L27.381,9.359c-.341.493-.131.853.466.8l5.328-.477a.878.878,0,0,0,.794-1.148L32.538,3.378c-.16-.578-.57-.647-.912-.154L30.4,5A19.387,19.387,0,0,0,16.191,1.98q-.754.13-1.487.317l-.01,0-.056.016A19.358,19.358,0,0,0,3.9,9.509c-.023.027-.046.053-.067.082-.089.12-.177.243-.264.365-.142.2-.281.407-.415.613-.017.025-.029.05-.044.075A19.354,19.354,0,0,0,.021,22.061c0,.013,0,.027,0,.04.018.394.049.793.091,1.186,0,.025.008.049.012.075.044.4.1.791.168,1.187A19.374,19.374,0,0,0,5.755,35.056l.02.021.007.006a19.78,19.78,0,0,0,2.5,2.09,19.356,19.356,0,0,0,7.784,3.258,1.57,1.57,0,0,0,.554-3.09Z" transform="translate(0 -1.688)" fill="#212121" stroke="#fff" stroke-width="0.5"/>
        <path id="Trazado_3084" data-name="Trazado 3084" d="M207.258,83.2a1.271,1.271,0,0,0-1.271,1.27V97.123l11.573,5.983a1.27,1.27,0,0,0,1.166-2.256l-10.2-5.273V84.468A1.27,1.27,0,0,0,207.258,83.2Z" transform="translate(-188.695 -76.356)" fill="#212121" stroke="#fff" stroke-width="0.5"/>
      </g>
    </g>
  </g>
</svg>
