<svg xmlns="http://www.w3.org/2000/svg" width="44.5" height="44.5" viewBox="0 0 44.5 44.5">
  <g id="Contact" transform="translate(-2 -2)">
    <path id="Trazado_3136" data-name="Trazado 3136" d="M38.092,2C30.321,2,24,6.991,24,13.125c0,4.207,3.019,8.048,7.746,9.929L30.692,27.8a.742.742,0,0,0,1.17.751l5.756-4.317c.157.008.314.016.474.016,7.77,0,14.092-4.991,14.092-11.125S45.862,2,38.092,2Zm0,20.767c-.148,0-.3-.008-.438-.016l-.237-.011a.771.771,0,0,0-.475.148l-4.367,3.274.759-3.415a.742.742,0,0,0-.479-.861c-4.48-1.573-7.372-5.011-7.372-8.761,0-5.316,5.656-9.642,12.608-9.642S50.7,7.809,50.7,13.125,45.044,22.767,38.092,22.767Z" transform="translate(-5.683 0)" fill="#fff"/>
    <rect id="Rectángulo_411" data-name="Rectángulo 411" width="16" height="1" transform="translate(25 12.5)" fill="#fff"/>
    <rect id="Rectángulo_412" data-name="Rectángulo 412" width="16" height="1" transform="translate(25 9.5)" fill="#fff"/>
    <rect id="Rectángulo_413" data-name="Rectángulo 413" width="16" height="1" transform="translate(25 15.5)" fill="#fff"/>
    <path id="Trazado_3137" data-name="Trazado 3137" d="M20.425,41.154l-4.334-1.179V39.1a6.675,6.675,0,0,0,3.708-5.97v-.742a.742.742,0,0,0,.742-.742V29.417a7.417,7.417,0,1,0-14.833,0v2.225a.742.742,0,0,0,.742.742v.742a6.675,6.675,0,0,0,3.708,5.97v.88L5.823,41.154A5.214,5.214,0,0,0,2,46.163v4.761a.742.742,0,0,0,.742.742H23.508a.742.742,0,0,0,.742-.742V46.163A5.215,5.215,0,0,0,20.425,41.154Zm-11.75.762,1.038-.282,2.67,2.225v1.875h1.483V43.856l2.67-2.225,1.038.282V43.2l-4.45,4.45L8.675,43.2Zm-1.483-12.5a5.933,5.933,0,1,1,11.867,0v1.447a3.685,3.685,0,0,1-2.792-2.014l-.253-.507a.742.742,0,0,0-1.187-.193L13.6,29.38A5.158,5.158,0,0,1,9.926,30.9H7.192Zm.742,3.708v-.742H9.926a6.628,6.628,0,0,0,4.719-1.955l.519-.519a5.149,5.149,0,0,0,3.152,2.316v.9a5.192,5.192,0,1,1-10.383,0ZM13.125,39.8a6.653,6.653,0,0,0,1.483-.172v.914a.734.734,0,0,0,.259.551l-1.742,1.451-1.742-1.451a.734.734,0,0,0,.259-.552v-.914a6.653,6.653,0,0,0,1.483.172Zm9.642,10.383H3.483v-4.02a3.726,3.726,0,0,1,2.732-3.579l.977-.263v1.187a.742.742,0,0,0,.217.524L12.6,49.224a.742.742,0,0,0,1.049,0l5.192-5.192a.742.742,0,0,0,.217-.524V42.322l.975.266a3.728,3.728,0,0,1,2.734,3.576Z" transform="translate(0 -5.167)" fill="#fff"/>
    <path id="Trazado_3138" data-name="Trazado 3138" d="M18.933,38H17.45a1.483,1.483,0,0,1-2.967,0H13a2.967,2.967,0,1,0,5.933,0Z" transform="translate(-2.842 -9.3)" fill="#fff"/>
  </g>
</svg>
