<svg xmlns="http://www.w3.org/2000/svg" width="54.283" height="29.721" viewBox="0 0 54.283 29.721">
  <g id="Grupo_9" data-name="Grupo 9" transform="translate(0.001 -101.733)">
    <path id="Trazado_11" data-name="Trazado 11" d="M86.875,136.859a1.207,1.207,0,0,0-1.531.756,3.968,3.968,0,0,1-3.609,2.866,3.245,3.245,0,0,1-3.279-2.536,1.426,1.426,0,0,0-2.573,0,3.245,3.245,0,0,1-3.279,2.536,3.969,3.969,0,0,1-3.609-2.866,2.239,2.239,0,0,0-.224-.439L62.1,128.384a3.465,3.465,0,0,0-1.194-.954l-7.877-3.576a2.3,2.3,0,0,0-1.931.059l-10.484,5.551a1.945,1.945,0,0,0-.987,1.945l.388,2.659a1.539,1.539,0,0,0,2.225,1.179l9.667-4.682,2.508,1.358s-6.507,4.935-6.857,5.724a3.7,3.7,0,0,1-7.206-.033,1.207,1.207,0,0,0-2.287.774,6.373,6.373,0,0,0,5.9,4.506,6.1,6.1,0,0,0,4.774-2.42,5.918,5.918,0,0,0,9.548,0,5.918,5.918,0,0,0,9.548,0A6.1,6.1,0,0,0,72.6,142.9a5.433,5.433,0,0,0,4.566-2.216,5.432,5.432,0,0,0,4.566,2.216,6.373,6.373,0,0,0,5.9-4.506A1.207,1.207,0,0,0,86.875,136.859Zm-23.819,3.622a3.968,3.968,0,0,1-3.609-2.866A1.207,1.207,0,0,0,58.3,136.8h-.034a1.207,1.207,0,0,0-1.148.819,3.968,3.968,0,0,1-3.609,2.866,3.849,3.849,0,0,1-3.348-2.243L56.978,133a1.493,1.493,0,0,0-.2-2.543l-3.839-2.078a2.245,2.245,0,0,0-1.96-.044l-8.741,4.234-.167-1.142L52.129,126.1l7.775,3.529a1.224,1.224,0,0,1,.272.216l6.282,8.279A3.87,3.87,0,0,1,63.056,140.481Z" transform="translate(-33.414 -19.289)" fill="#fff"/>
    <path id="Trazado_12" data-name="Trazado 12" d="M39.412,297.789a1.207,1.207,0,0,0-1.531.756,3.245,3.245,0,0,1-3.279,2.536,3.968,3.968,0,0,1-3.609-2.866,1.207,1.207,0,0,0-1.146-.819h-.034a1.207,1.207,0,0,0-1.149.82,3.968,3.968,0,0,1-3.609,2.866,3.968,3.968,0,0,1-3.609-2.866A1.207,1.207,0,0,0,20.3,297.4h-.034a1.207,1.207,0,0,0-1.149.82,3.968,3.968,0,0,1-3.609,2.866,3.969,3.969,0,0,1-3.609-2.866,1.207,1.207,0,0,0-1.146-.819h-.034a1.207,1.207,0,0,0-1.149.82,3.968,3.968,0,0,1-3.609,2.866,3.968,3.968,0,0,1-3.609-2.866,1.207,1.207,0,0,0-2.287.774,6.373,6.373,0,0,0,5.9,4.506,6.1,6.1,0,0,0,4.774-2.42,6.1,6.1,0,0,0,4.774,2.42,6.1,6.1,0,0,0,4.774-2.42,5.918,5.918,0,0,0,9.548,0A6.1,6.1,0,0,0,34.6,303.5a5.623,5.623,0,0,0,5.566-4.176A1.207,1.207,0,0,0,39.412,297.789Z" transform="translate(0 -172.041)" fill="#fff"/>
    <path id="Trazado_13" data-name="Trazado 13" d="M268.888,115.489a6.878,6.878,0,1,0-6.8-5.885A6.949,6.949,0,0,0,268.888,115.489Zm-.638-11.295a4.458,4.458,0,0,1,5.061,3.771,4.468,4.468,0,0,1-3.771,5.061,4.458,4.458,0,0,1-5.061-3.772A4.468,4.468,0,0,1,268.25,104.195Z" transform="translate(-230.387 0)" fill="#fff"/>
  </g>
</svg>
