<svg xmlns="http://www.w3.org/2000/svg" width="41.507" height="32.701" viewBox="0 0 41.507 32.701">
  <g id="_876784" data-name="876784" transform="translate(0.459 -50.739)">
    <g id="Grupo_589" data-name="Grupo 589" transform="translate(0 51.198)">
      <path id="Trazado_1153" data-name="Trazado 1153" d="M40.164,61.77,30.017,51.623a1.45,1.45,0,0,0-2.475,1.025V57H17.395a1.45,1.45,0,0,0,0,2.9h11.6a1.45,1.45,0,0,0,1.45-1.45v-2.3l6.648,6.648-6.648,6.648v-2.3a1.45,1.45,0,0,0-1.45-1.45H13.046V61.345a1.45,1.45,0,0,0-2.475-1.025L.424,70.468a1.45,1.45,0,0,0,0,2.05L10.572,82.665a1.45,1.45,0,0,0,1.025.425,1.431,1.431,0,0,0,.555-.11,1.45,1.45,0,0,0,.894-1.339V77.291H23.194a1.45,1.45,0,1,0,0-2.9H11.6a1.45,1.45,0,0,0-1.45,1.45v2.3L3.5,71.493l6.648-6.648v2.3a1.45,1.45,0,0,0,1.45,1.45H27.542v4.349a1.45,1.45,0,0,0,2.475,1.025L40.164,63.82A1.45,1.45,0,0,0,40.164,61.77Z" transform="translate(0 -51.198)" fill="#212121" stroke="#e5e5e5" stroke-width="0.7"/>
    </g>
  </g>
</svg>
