<svg xmlns="http://www.w3.org/2000/svg" width="65.296" height="48.581" viewBox="0 0 65.296 48.581">
  <g id="Grupo_637" data-name="Grupo 637" transform="translate(-1449.542 -165.888)">
    <g id="Grupo_626" data-name="Grupo 626" transform="translate(1477.068 173.146)">
      <g id="Grupo_625" data-name="Grupo 625" transform="translate(0 0)">
        <path id="Trazado_1175" data-name="Trazado 1175" d="M1699.375,223.1a.938.938,0,0,0-1.251.2L1671.9,256.426a4.676,4.676,0,0,0,3.649,7.589,4.777,4.777,0,0,0,.536-.03,4.646,4.646,0,0,0,3.131-1.733,9.375,9.375,0,0,0,.536-.8c.008-.014.016-.028.024-.042l19.913-37.086A.938.938,0,0,0,1699.375,223.1Zm-21.243,37.4c-.109.179-.293.465-.386.582a2.8,2.8,0,1,1-4.378-3.489l19.661-24.835Z" transform="translate(-1670.879 -222.942)" fill="#fff" stroke="#fff" stroke-width="0.5"/>
      </g>
    </g>
    <g id="Grupo_628" data-name="Grupo 628" transform="translate(1499.626 177.262)">
      <g id="Grupo_627" data-name="Grupo 627" transform="translate(0 0)">
        <path id="Trazado_1176" data-name="Trazado 1176" d="M1860.768,256.632a.938.938,0,1,0-1.423,1.223,30.966,30.966,0,0,1,7.455,19.233h-7.946a28.887,28.887,0,0,0-3.367-10.011.938.938,0,1,0-1.64.912,27.035,27.035,0,0,1,3.249,10.143.938.938,0,0,0,.932.833h9.724a.938.938,0,0,0,.938-.938A32.846,32.846,0,0,0,1860.768,256.632Z" transform="translate(-1853.729 -256.305)" fill="#fff" stroke="#fff" stroke-width="0.5"/>
      </g>
    </g>
    <g id="Grupo_630" data-name="Grupo 630" transform="translate(1469.438 166.138)">
      <g id="Grupo_629" data-name="Grupo 629" transform="translate(0 0)">
        <path id="Trazado_1177" data-name="Trazado 1177" d="M1640.726,172.467a32.9,32.9,0,0,0-31.089-4.183.938.938,0,1,0,.669,1.753,30.943,30.943,0,0,1,29.312,3.944.938.938,0,0,0,1.109-1.514Z" transform="translate(-1609.033 -166.138)" fill="#fff" stroke="#fff" stroke-width="0.5"/>
      </g>
    </g>
    <g id="Grupo_632" data-name="Grupo 632" transform="translate(1451.421 169.533)">
      <g id="Grupo_631" data-name="Grupo 631" transform="translate(0 0)">
        <path id="Trazado_1178" data-name="Trazado 1178" d="M1507.573,205.19a29.186,29.186,0,0,0-38.032-1.927,31.071,31.071,0,0,1,9.865-7.833.938.938,0,1,0-.844-1.676,32.943,32.943,0,0,0-15.487,16.529.938.938,0,0,0,1.644.887,27.286,27.286,0,0,1,41.561-4.623.938.938,0,0,0,1.295-1.358Z" transform="translate(-1462.999 -193.654)" fill="#fff" stroke="#fff" stroke-width="0.5"/>
      </g>
    </g>
    <g id="Grupo_634" data-name="Grupo 634" transform="translate(1480.469 208.918)">
      <g id="Grupo_633" data-name="Grupo 633" transform="translate(0 0)">
        <path id="Trazado_1179" data-name="Trazado 1179" d="M1699.873,513.042a.938.938,0,1,0,.408,1.02A.948.948,0,0,0,1699.873,513.042Z" transform="translate(-1698.443 -512.899)" fill="#fff" stroke="#fff" stroke-width="0.5"/>
      </g>
    </g>
    <g id="Grupo_635" data-name="Grupo 635" transform="translate(1449.792 189.76)">
      <path id="Trazado_1180" data-name="Trazado 1180" d="M1449.792,362.328v-4.036a.7.7,0,0,1,.171-.5.617.617,0,0,1,.469-.179h3.014q.566,0,.566.517v.041q0,.517-.566.517h-2.419v1.043h1.768q.566,0,.566.488v.033q0,.513-.566.513h-1.768v1.169h2.46q.566,0,.566.488v.049q0,.538-.566.538h-3.055a.623.623,0,0,1-.471-.175A.692.692,0,0,1,1449.792,362.328Z" transform="translate(-1449.792 -357.607)" fill="#fff" stroke="#fff" stroke-width="0.5"/>
    </g>
    <g id="Grupo_636" data-name="Grupo 636" transform="translate(1505.679 189.76)">
      <path id="Trazado_1181" data-name="Trazado 1181" d="M1902.792,362.352v-4.061a.7.7,0,0,1,.171-.5.617.617,0,0,1,.469-.179h2.79q.566,0,.566.485v.048q0,.5-.57.5h-2.225V360h1.6q.57,0,.571.455v.027q0,.483-.571.479h-1.572v1.5q0,.576-.535.576h-.189Q1902.792,363.036,1902.792,362.352Z" transform="translate(-1902.792 -357.607)" fill="#fff" stroke="#fff" stroke-width="0.5"/>
    </g>
  </g>
</svg>
