<svg xmlns="http://www.w3.org/2000/svg" width="39" height="39" viewBox="0 0 39 39">
  <g id="_416255" data-name="416255" transform="translate(0.25 0.25)">
    <g id="Grupo_1284" data-name="Grupo 1284">
      <g id="Grupo_1283" data-name="Grupo 1283">
        <path id="Trazado_3130" data-name="Trazado 3130" d="M19.76,23.852a.608.608,0,0,0-.81-.289,9.68,9.68,0,0,1-1.538.575.608.608,0,0,0-.432.466l-.643,3.215a.683.683,0,0,1-.668.548H13.915a.683.683,0,0,1-.668-.548L12.6,24.605a.608.608,0,0,0-.432-.466,9.659,9.659,0,0,1-2.135-.885.608.608,0,0,0-.636.024L6.672,25.1a.684.684,0,0,1-.86-.085l-1.24-1.24a.684.684,0,0,1-.085-.86l1.819-2.729a.608.608,0,0,0,.024-.636,9.656,9.656,0,0,1-.885-2.135.608.608,0,0,0-.466-.432l-3.215-.643a.683.683,0,0,1-.548-.668V13.915a.683.683,0,0,1,.548-.668L4.979,12.6a.608.608,0,0,0,.466-.432,9.659,9.659,0,0,1,.885-2.135A.608.608,0,0,0,6.306,9.4L4.487,6.672a.684.684,0,0,1,.085-.86l1.24-1.24a.684.684,0,0,1,.86-.085L9.4,6.306a.608.608,0,0,0,.636.024,9.659,9.659,0,0,1,2.135-.885.608.608,0,0,0,.432-.466l.643-3.215a.683.683,0,0,1,.668-.548h1.754a.683.683,0,0,1,.668.548l.643,3.215a.608.608,0,0,0,.432.466,9.659,9.659,0,0,1,2.135.885.608.608,0,0,0,.636-.024l2.729-1.819a.684.684,0,0,1,.86.085l1.24,1.24a.684.684,0,0,1,.085.86L23.279,9.4a.608.608,0,0,0-.024.636,9.659,9.659,0,0,1,.885,2.135.608.608,0,0,0,.466.432l3.215.643a.683.683,0,0,1,.548.668v1.754a.683.683,0,0,1-.548.668l-3.215.643a.608.608,0,0,0-.466.432,9.676,9.676,0,0,1-.593,1.574.608.608,0,0,0,1.1.526A10.9,10.9,0,0,0,25.2,18.1l2.857-.571a1.9,1.9,0,0,0,1.525-1.861V13.915a1.9,1.9,0,0,0-1.525-1.861L25.2,11.483a10.878,10.878,0,0,0-.709-1.712l1.616-2.424a1.9,1.9,0,0,0-.237-2.394l-1.24-1.24a1.9,1.9,0,0,0-2.394-.237L19.813,5.091A10.885,10.885,0,0,0,18.1,4.382L17.53,1.525A1.9,1.9,0,0,0,15.669,0H13.915a1.9,1.9,0,0,0-1.861,1.525l-.571,2.857a10.878,10.878,0,0,0-1.712.709L7.347,3.475a1.9,1.9,0,0,0-2.394.237l-1.24,1.24a1.9,1.9,0,0,0-.237,2.394L5.091,9.771a10.882,10.882,0,0,0-.709,1.712l-2.857.571A1.9,1.9,0,0,0,0,13.915v1.754A1.9,1.9,0,0,0,1.525,17.53l2.857.571a10.876,10.876,0,0,0,.709,1.712L3.475,22.238a1.9,1.9,0,0,0,.237,2.394l1.24,1.24a1.9,1.9,0,0,0,2.394.237l2.424-1.616a10.882,10.882,0,0,0,1.712.709l.571,2.857a1.9,1.9,0,0,0,1.86,1.525h1.754a1.9,1.9,0,0,0,1.861-1.525L18.1,25.2a10.891,10.891,0,0,0,1.371-.54A.608.608,0,0,0,19.76,23.852Z" fill="#fff" stroke="#fff" stroke-width="0.5"/>
        <path id="Trazado_3131" data-name="Trazado 3131" d="M141.063,116.055a.607.607,0,0,0,.818-.263,6.834,6.834,0,0,0-10.853-8.007.608.608,0,0,0,.849.871,5.619,5.619,0,0,1,8.923,6.582A.608.608,0,0,0,141.063,116.055Z" transform="translate(-121.005 -97.885)" fill="#fff" stroke="#fff" stroke-width="0.5"/>
        <path id="Trazado_3132" data-name="Trazado 3132" d="M106.988,161.716a.608.608,0,0,0-.773.377,6.835,6.835,0,0,0,10.467,7.762.608.608,0,0,0-.713-.985,5.62,5.62,0,0,1-8.6-6.382A.608.608,0,0,0,106.988,161.716Z" transform="translate(-97.886 -149.525)" fill="#fff" stroke="#fff" stroke-width="0.5"/>
        <path id="Trazado_3133" data-name="Trazado 3133" d="M266.6,255.843l-1.758-.352a7.355,7.355,0,0,0-.386-.93l.995-1.492a1.459,1.459,0,0,0-.182-1.836l-.815-.815a1.459,1.459,0,0,0-1.836-.182l-1.492.995a7.343,7.343,0,0,0-.93-.385l-.352-1.758a1.459,1.459,0,0,0-1.427-1.17h-1.153a1.459,1.459,0,0,0-1.427,1.17l-.352,1.758a7.363,7.363,0,0,0-.93.385l-1.492-.995a1.459,1.459,0,0,0-1.836.182l-.815.815a1.459,1.459,0,0,0-.182,1.836l.995,1.492a7.344,7.344,0,0,0-.5,1.292.608.608,0,0,0,1.171.328,6.133,6.133,0,0,1,.562-1.357.608.608,0,0,0-.024-.636l-1.2-1.793a.24.24,0,0,1,.03-.3l.815-.815a.24.24,0,0,1,.3-.03l1.793,1.2a.608.608,0,0,0,.636.024,6.135,6.135,0,0,1,1.357-.562.608.608,0,0,0,.432-.466l.423-2.113a.24.24,0,0,1,.235-.193h1.153a.24.24,0,0,1,.235.193l.422,2.113a.608.608,0,0,0,.432.466,6.134,6.134,0,0,1,1.357.562.608.608,0,0,0,.636-.024l1.793-1.2a.24.24,0,0,1,.3.03l.815.815a.24.24,0,0,1,.03.3l-1.2,1.793a.608.608,0,0,0-.024.636,6.137,6.137,0,0,1,.562,1.357.608.608,0,0,0,.466.432l2.113.423a.24.24,0,0,1,.193.235v1.153a.24.24,0,0,1-.193.235l-2.113.423a.608.608,0,0,0-.466.432,6.134,6.134,0,0,1-.562,1.357.608.608,0,0,0,.024.636l1.2,1.793a.24.24,0,0,1-.03.3l-.815.815a.24.24,0,0,1-.3.03l-1.793-1.2a.608.608,0,0,0-.636-.024,6.135,6.135,0,0,1-1.357.562.608.608,0,0,0-.432.466l-.423,2.113a.24.24,0,0,1-.235.193h-1.153a.24.24,0,0,1-.235-.193l-.422-2.113a.608.608,0,0,0-.432-.466,6.135,6.135,0,0,1-1.357-.562.608.608,0,0,0-.636.024l-1.793,1.2a.24.24,0,0,1-.3-.03l-.815-.815a.24.24,0,0,1-.03-.3l1.2-1.793a.608.608,0,0,0,.024-.636,6.136,6.136,0,0,1-.562-1.357.608.608,0,0,0-.466-.432l-2.113-.423a.24.24,0,0,1-.193-.235v-1.153a.24.24,0,0,1,.193-.235l.129-.026a.608.608,0,1,0-.239-1.192l-.129.026a1.459,1.459,0,0,0-1.17,1.427v1.153a1.459,1.459,0,0,0,1.17,1.427l1.758.352a7.364,7.364,0,0,0,.385.93l-.995,1.492a1.459,1.459,0,0,0,.182,1.836l.815.815a1.459,1.459,0,0,0,1.836.182l1.492-.995a7.338,7.338,0,0,0,.93.385l.352,1.758a1.459,1.459,0,0,0,1.427,1.17h1.153a1.459,1.459,0,0,0,1.427-1.17l.352-1.758a7.351,7.351,0,0,0,.93-.386l1.492.995a1.459,1.459,0,0,0,1.836-.182l.815-.815a1.459,1.459,0,0,0,.182-1.836l-.995-1.492a7.344,7.344,0,0,0,.385-.93l1.758-.352a1.459,1.459,0,0,0,1.17-1.427v-1.153A1.459,1.459,0,0,0,266.6,255.843Z" transform="translate(-229.273 -229.275)" fill="#fff" stroke="#fff" stroke-width="0.5"/>
        <path id="Trazado_3134" data-name="Trazado 3134" d="M338.089,335.9a2.191,2.191,0,0,1,2.188,2.188.608.608,0,0,0,1.216,0,3.4,3.4,0,1,0-3.4,3.4,3.373,3.373,0,0,0,2.08-.709.608.608,0,1,0-.743-.962,2.167,2.167,0,0,1-1.336.455,2.188,2.188,0,1,1,0-4.377Z" transform="translate(-309.518 -309.519)" fill="#fff" stroke="#fff" stroke-width="0.5"/>
        <path id="Trazado_3135" data-name="Trazado 3135" d="M154.87,151.167a3.7,3.7,0,1,0-3.7,3.7A3.708,3.708,0,0,0,154.87,151.167Zm-6.191,0a2.488,2.488,0,1,1,2.488,2.488A2.491,2.491,0,0,1,148.679,151.167Z" transform="translate(-136.374 -136.374)" fill="#fff" stroke="#fff" stroke-width="0.5"/>
      </g>
    </g>
  </g>
</svg>
