<svg xmlns="http://www.w3.org/2000/svg" width="46.835" height="43.141" viewBox="0 0 46.835 43.141">
  <g id="ph" transform="translate(-0.494 -2.475)">
    <g id="Grupo_3" data-name="Grupo 3" transform="translate(18.078 2.475)">
      <g id="Grupo_1" data-name="Grupo 1" transform="translate(4.11 10.107)">
        <path id="Trazado_4" data-name="Trazado 4" d="M20.8,16.407a1.053,1.053,0,0,1-.731-.365l-1.218-1.218a1.033,1.033,0,0,1,1.461-1.461l.487.487,2.8-2.8a1.033,1.033,0,0,1,1.461,1.461l-3.531,3.653A.9.9,0,0,1,20.8,16.407Z" transform="translate(-18.575 -10.775)" fill="#fff"/>
      </g>
      <g id="Grupo_2" data-name="Grupo 2">
        <path id="Trazado_5" data-name="Trazado 5" d="M22.75,23.572a7.75,7.75,0,0,1-7.55-7.915c0-6.089,6.454-12.664,6.819-12.908a1.111,1.111,0,0,1,1.461,0c.244.244,6.819,6.819,6.819,12.908C30.178,20.041,26.89,23.572,22.75,23.572Zm0-18.509c-1.583,1.827-5.48,6.576-5.48,10.716a5.485,5.485,0,1,0,10.96,0C28.108,11.638,24.333,6.889,22.75,5.063Z" transform="translate(-15.2 -2.475)" fill="#fff"/>
      </g>
    </g>
    <g id="Grupo_7" data-name="Grupo 7" transform="matrix(0.985, 0.174, -0.174, 0.985, 4.134, 19.515)">
      <g id="Grupo_4" data-name="Grupo 4" transform="translate(7.313 3.183)">
        <path id="Trazado_6" data-name="Trazado 6" d="M23.833,30.206a.941.941,0,0,1-.974-.852,1,1,0,0,1,.852-1.218l7.915-1.461-.365-.731c-.244-.487-1.1-.974-2.679-.974-.731,0-2.314.365-3.775.609a18.536,18.536,0,0,1-4.871.609,2.866,2.866,0,0,1-.974-.244,10.494,10.494,0,0,0-5.358-.365,7.1,7.1,0,0,0-3.9,1.948.956.956,0,0,1-1.339,0,1,1,0,0,1-.122-1.461,9.208,9.208,0,0,1,4.993-2.557,11.874,11.874,0,0,1,6.454.365,7.761,7.761,0,0,1,.852.244,22.981,22.981,0,0,0,4.018-.609A21.152,21.152,0,0,1,28.7,22.9a5.035,5.035,0,0,1,4.384,1.948,8.5,8.5,0,0,1,.974,2.435,1.069,1.069,0,0,1-.122.852,1.118,1.118,0,0,1-.731.487l-9.133,1.7C23.955,30.206,23.955,30.206,23.833,30.206Z" transform="translate(-7.986 -22.9)" fill="#fff"/>
      </g>
      <g id="Grupo_5" data-name="Grupo 5" transform="translate(8.774)">
        <path id="Trazado_7" data-name="Trazado 7" d="M10.177,39.056a.93.93,0,0,1-.609-.244,1,1,0,0,1-.122-1.461c.365-.365,2.07-2.435,3.9-2.679a48.281,48.281,0,0,1,6.332.365,46.391,46.391,0,0,0,6.332.365c2.435-.244,4.14-1.461,7.55-4.993l8.037-8.037a1.7,1.7,0,0,0-1.339,0c-1.1.365-4.871,3.288-7.306,5.236a1.037,1.037,0,1,1-1.339-1.583c.974-.852,6.089-5.114,8.037-5.6a4.556,4.556,0,0,1,4.262,1.1,1.053,1.053,0,0,1,.365.731.868.868,0,0,1-.365.731L34.9,31.993c-3.166,3.41-5.48,5.236-8.768,5.6a52.169,52.169,0,0,1-6.7-.365,40.359,40.359,0,0,0-5.845-.365,6.254,6.254,0,0,0-2.557,1.948A1.76,1.76,0,0,1,10.177,39.056Z" transform="translate(-9.186 -20.286)" fill="#fff"/>
      </g>
      <g id="Grupo_6" data-name="Grupo 6" transform="translate(0 3.769)">
        <path id="Trazado_8" data-name="Trazado 8" d="M5.414,40.574a.941.941,0,0,1-.974-.852L2,25.718A1,1,0,0,1,2.857,24.5l6.576-1.1a1,1,0,0,1,1.218.852l2.314,14c0,.244,0,.609-.122.731a.736.736,0,0,1-.731.365l-6.576,1.1A.119.119,0,0,1,5.414,40.574ZM4.2,26.327,6.266,38.26l4.506-.731L8.7,25.6Z" transform="translate(-1.981 -23.381)" fill="#fff"/>
      </g>
    </g>
  </g>
</svg>
