<svg xmlns="http://www.w3.org/2000/svg" width="30.878" height="30.879" viewBox="0 0 30.878 30.879">
  <path id="_1286853" data-name="1286853" d="M22.272,23.642v2.412a4.83,4.83,0,0,1-4.825,4.825H5.325A4.83,4.83,0,0,1,.5,26.054V4.825A4.83,4.83,0,0,1,5.325,0H17.447a4.83,4.83,0,0,1,4.825,4.825V7.237a1.206,1.206,0,1,1-2.412,0V4.825a2.415,2.415,0,0,0-2.412-2.412H5.325A2.415,2.415,0,0,0,2.912,4.825V26.054a2.415,2.415,0,0,0,2.412,2.412H17.447a2.415,2.415,0,0,0,2.412-2.412V23.642a1.206,1.206,0,1,1,2.412,0ZM30.5,13.368l-2.7-2.7a1.206,1.206,0,1,0-1.706,1.706l1.921,1.921H13.527a1.206,1.206,0,0,0,0,2.412H28.01l-1.921,1.921a1.206,1.206,0,1,0,1.706,1.706l2.7-2.7A3.019,3.019,0,0,0,30.5,13.368Zm0,0" transform="translate(-0.5)" fill="#fff"/>
</svg>
