<svg xmlns="http://www.w3.org/2000/svg" width="21.08" height="47.662" viewBox="0 0 21.08 47.662">
  <g id="_518917" data-name="518917" transform="translate(-144.04 0.25)">
    <g id="Grupo_32" data-name="Grupo 32" transform="translate(144.29)">
      <g id="Grupo_31" data-name="Grupo 31" transform="translate(0)">
        <path id="Trazado_47" data-name="Trazado 47" d="M163.586,13.15l-4.7-4.7a2.248,2.248,0,0,1-.663-1.6V5.633a1.43,1.43,0,0,0,.738-1.25V1.429A1.431,1.431,0,0,0,157.534,0h-5.907A1.431,1.431,0,0,0,150.2,1.429V4.383a1.43,1.43,0,0,0,.738,1.25V6.851a2.248,2.248,0,0,1-.663,1.6l-4.7,4.7a4.354,4.354,0,0,0-1.284,3.1V44.256a2.909,2.909,0,0,0,2.906,2.906h14.768a2.909,2.909,0,0,0,2.906-2.906V16.25A4.353,4.353,0,0,0,163.586,13.15ZM151.579,1.429a.048.048,0,0,1,.048-.048h5.907a.048.048,0,0,1,.048.048V4.383a.048.048,0,0,1-.048.048h-5.907a.048.048,0,0,1-.048-.048Zm11.909,42.827a1.526,1.526,0,0,1-1.524,1.524H147.2a1.526,1.526,0,0,1-1.524-1.524V36.825h17.817Zm0-25.058h-2.263a.691.691,0,1,0,0,1.382h2.263V35.443H145.672V20.58h12.6a.691.691,0,0,0,0-1.382h-12.6V16.25a2.982,2.982,0,0,1,.879-2.122l4.7-4.7a3.62,3.62,0,0,0,1.067-2.577V5.812h4.525V6.851a3.62,3.62,0,0,0,1.067,2.577l4.7,4.7a2.981,2.981,0,0,1,.879,2.122Z" transform="translate(-144.29)" fill="#fff" stroke="#fff" stroke-width="0.5"/>
      </g>
    </g>
    <g id="Grupo_34" data-name="Grupo 34" transform="translate(153.151 7.384)">
      <g id="Grupo_33" data-name="Grupo 33" transform="translate(0)">
        <path id="Trazado_48" data-name="Trazado 48" d="M242.652,80.161h-1.477a.691.691,0,0,0,0,1.382h1.477a.691.691,0,1,0,0-1.382Z" transform="translate(-240.484 -80.161)" fill="#fff" stroke="#fff" stroke-width="0.5"/>
      </g>
    </g>
    <g id="Grupo_36" data-name="Grupo 36" transform="translate(147.244 42.827)">
      <g id="Grupo_35" data-name="Grupo 35" transform="translate(0)">
        <path id="Trazado_49" data-name="Trazado 49" d="M190.337,464.936H177.046a.691.691,0,0,0,0,1.382h13.291a.691.691,0,0,0,0-1.382Z" transform="translate(-176.355 -464.936)" fill="#fff" stroke="#fff" stroke-width="0.5"/>
      </g>
    </g>
    <g id="Grupo_38" data-name="Grupo 38" transform="translate(157.581 23.629)">
      <g id="Grupo_37" data-name="Grupo 37" transform="translate(0)">
        <path id="Trazado_50" data-name="Trazado 50" d="M289.273,256.516a.691.691,0,0,0-.691.691v7.384a.691.691,0,0,0,1.382,0v-7.384A.691.691,0,0,0,289.273,256.516Z" transform="translate(-288.582 -256.516)" fill="#fff" stroke="#fff" stroke-width="0.5"/>
      </g>
    </g>
    <g id="Grupo_40" data-name="Grupo 40" transform="translate(150.197 23.629)">
      <g id="Grupo_39" data-name="Grupo 39" transform="translate(0)">
        <path id="Trazado_51" data-name="Trazado 51" d="M213.047,263.328a1.891,1.891,0,0,1-3.246-1.322v-2.215a1.891,1.891,0,0,1,3.246-1.322.691.691,0,0,0,.988-.966,3.273,3.273,0,0,0-5.615,2.288v2.215a3.273,3.273,0,0,0,5.615,2.288.691.691,0,1,0-.988-.966Z" transform="translate(-208.42 -256.516)" fill="#fff" stroke="#fff" stroke-width="0.5"/>
      </g>
    </g>
  </g>
</svg>
