<svg xmlns="http://www.w3.org/2000/svg" width="41.726" height="27.077" viewBox="0 0 41.726 27.077">
  <g id="Grupo_586" data-name="Grupo 586" transform="translate(-491.771 -260.727)">
    <path id="Trazado_1145" data-name="Trazado 1145" d="M794.563,308.416h-9.795V306h9.795Z" transform="translate(-261.316 -40.19)" fill="#212121" stroke="#e5e5e5" stroke-width="0.5"/>
    <path id="Trazado_1146" data-name="Trazado 1146" d="M794.549,353.416h-9.8V351h9.8Z" transform="translate(-261.303 -80.358)" fill="#212121" stroke="#e5e5e5" stroke-width="0.5"/>
    <path id="Trazado_1147" data-name="Trazado 1147" d="M794.549,398.416h-9.8V396h9.8Z" transform="translate(-261.302 -120.527)" fill="#212121" stroke="#e5e5e5" stroke-width="0.5"/>
    <path id="Trazado_1148" data-name="Trazado 1148" d="M794.563,443.416h-9.795V441h9.795Z" transform="translate(-261.316 -160.696)" fill="#212121" stroke="#e5e5e5" stroke-width="0.5"/>
    <path id="Trazado_1149" data-name="Trazado 1149" d="M516.178,261.014c0,.776-.009,1.527.009,2.277a.471.471,0,0,0,.19.362,5.771,5.771,0,0,1,2.628,2.406,13.824,13.824,0,0,1,1.743,5.1,18.632,18.632,0,0,1-.784,9.28,7.963,7.963,0,0,1-1.951,3.289,9.361,9.361,0,0,1-1.574,1.09c-.185.113-.27.2-.266.418.013.75.005,1.5.005,2.272a1.7,1.7,0,0,1-.241.039,41.783,41.783,0,0,1-12.519-1.6,20.946,20.946,0,0,1-7.405-3.675A10,10,0,0,1,492.174,276a9.793,9.793,0,0,1,3.2-9.195,18,18,0,0,1,6.289-3.648,40.129,40.129,0,0,1,14.353-2.18A1.16,1.16,0,0,1,516.178,261.014Zm-7.27,2.794a27.65,27.65,0,0,0-8.067,2.288,13.42,13.42,0,0,0-4.353,3.116,7.186,7.186,0,0,0-1.889,6.533,8.193,8.193,0,0,0,2.963,4.615,16.68,16.68,0,0,0,5.025,2.813,29.764,29.764,0,0,0,6.321,1.548Zm2.456-.277V285l2.368.123V263.4Zm4.839,2.875v15.639l.124.062c.346-.561.742-1.1,1.029-1.687a13.229,13.229,0,0,0,1.2-5.05,15.462,15.462,0,0,0-1-6.823A6.146,6.146,0,0,0,516.2,266.406Z" transform="translate(0 0)" fill="#212121" stroke="#e5e5e5" stroke-width="0.5"/>
  </g>
</svg>
