<svg xmlns="http://www.w3.org/2000/svg" width="41.14" height="41.14" viewBox="0 0 41.14 41.14">
  <g id="_748021" data-name="748021" transform="translate(0 -0.001)">
    <g id="Grupo_1308" data-name="Grupo 1308" transform="translate(0 0.001)">
      <g id="Grupo_1307" data-name="Grupo 1307">
        <path id="Trazado_3149" data-name="Trazado 3149" d="M249.607,24.3h.08A14.588,14.588,0,0,1,264.3,38.993a1.607,1.607,0,0,0,1.6,1.615h.008a1.607,1.607,0,0,0,1.607-1.6,17.8,17.8,0,0,0-17.83-17.919H249.6a1.607,1.607,0,0,0,.007,3.214Z" transform="translate(-228.073 -19.395)" fill="#212121"/>
        <path id="Trazado_3150" data-name="Trazado 3150" d="M41.136,33.15a6.085,6.085,0,0,0-1.866-4.182,14.947,14.947,0,0,0-5.918-3.931,6.623,6.623,0,0,0-6.8,1.93l-.009.009-2.175,2.159a32.356,32.356,0,0,1-6.849-5.3l-.211-.211a32.559,32.559,0,0,1-5.3-6.85L14.165,14.6l.009-.009a6.623,6.623,0,0,0,1.93-6.8,14.946,14.946,0,0,0-3.931-5.918,6.115,6.115,0,0,0-8.487-.306l-.046.041q-.032.029-.063.059A13.038,13.038,0,0,0,0,11.217c.033,6.606,3.664,14.162,9.713,20.211l.015.015a39.218,39.218,0,0,0,3.838,3.34,1.607,1.607,0,0,0,1.956-2.551,35.934,35.934,0,0,1-3.536-3.077l-.015-.015C6.516,23.679,3.243,16.974,3.214,11.2A9.927,9.927,0,0,1,5.82,3.968l.012-.011A2.891,2.891,0,0,1,9.859,4.1c4.161,4.315,3.859,6.352,2.021,8.237l-2.979,3a1.607,1.607,0,0,0-.327,1.786,32.471,32.471,0,0,0,6.461,8.769l.211.211a32.47,32.47,0,0,0,8.768,6.461A1.607,1.607,0,0,0,25.8,32.24l3-2.978c1.886-1.839,3.923-2.14,8.237,2.02a2.891,2.891,0,0,1,.145,4.026l-.011.013a9.9,9.9,0,0,1-7.159,2.606H29.94a20.838,20.838,0,0,1-7.93-1.877A1.607,1.607,0,1,0,20.737,39a23.708,23.708,0,0,0,9.187,2.14h.09a13.01,13.01,0,0,0,9.46-3.576c.02-.02.04-.041.059-.063l.042-.046A6.086,6.086,0,0,0,41.136,33.15Z" transform="translate(0 -0.001)" fill="#212121"/>
        <path id="Trazado_3151" data-name="Trazado 3151" d="M298.392,114.4a8.832,8.832,0,0,0-4.173-2.4,1.607,1.607,0,1,0-.857,3.1,5.621,5.621,0,0,1,2.757,1.576,5.743,5.743,0,0,1,1.56,2.707l.023.079a1.607,1.607,0,1,0,3.082-.912l-.022-.074A8.844,8.844,0,0,0,298.392,114.4Z" transform="translate(-268.705 -102.942)" fill="#212121"/>
      </g>
    </g>
  </g>
</svg>
