<svg xmlns="http://www.w3.org/2000/svg" width="33.201" height="33.013" viewBox="0 0 33.201 33.013">
  <path id="icono" d="M-570.209,10.31l1.22,1.322c.747-.747,1.473-1.495,2.228-2.211a1.687,1.687,0,0,1,.75-.416,1.107,1.107,0,0,1,1.22.62,1.177,1.177,0,0,1-.223,1.36c-.687.7-1.385,1.392-2.084,2.082a2.345,2.345,0,0,1-.358.24l2.234,2.43c.107-.1.2-.173.281-.256.713-.711,1.422-1.425,2.137-2.133a1.183,1.183,0,0,1,1.737-.079A1.179,1.179,0,0,1-561.13,15c-.821.826-1.65,1.644-2.489,2.479l1.284,1.408a.466.466,0,0,1-.054.107c-1.284,1.37-2.544,2.764-3.86,4.1a5.686,5.686,0,0,1-6.458,1.148c-.1-.045-.2-.088-.331-.146a3.483,3.483,0,0,0-.363,3.1,5.164,5.164,0,0,0,3.761,3.209,7.853,7.853,0,0,0,4.594-.245,14.028,14.028,0,0,0,8.082-6.462,14.2,14.2,0,0,0-9.08-20.984,14.247,14.247,0,0,0-17.016,10.326,14.251,14.251,0,0,0,5.408,15.067c.158.116.325.221.479.343a1.138,1.138,0,0,1,.277,1.517,1.027,1.027,0,0,1-1.427.426,15.03,15.03,0,0,1-2.266-1.678,16.113,16.113,0,0,1-5.173-10.366A16.589,16.589,0,0,1-573.294.5a16.605,16.605,0,0,1,20.12,12,16.088,16.088,0,0,1-1.274,11.441,16.156,16.156,0,0,1-8.867,8.12,11.356,11.356,0,0,1-4.909.937,8.4,8.4,0,0,1-6.234-2.944,6.077,6.077,0,0,1-.565-7.285.355.355,0,0,0-.026-.455,5.759,5.759,0,0,1,.552-7.37q2.057-2.21,4.126-4.409A2.381,2.381,0,0,0-570.209,10.31Zm0,3.478c-1.006,1.106-2.024,2.151-2.953,3.272a2.965,2.965,0,0,0-.539,2.55,3.211,3.211,0,0,0,2.347,2.625,3.378,3.378,0,0,0,3.552-.9c.657-.661,1.279-1.357,1.917-2.038.122-.13.243-.261.371-.4Z" transform="translate(585.851)" fill="#212121"/>
</svg>
