<svg xmlns="http://www.w3.org/2000/svg" width="34.739" height="41.139" viewBox="0 0 34.739 41.139">
  <g id="Grupo_14" data-name="Grupo 14" transform="translate(-4.8 -2)">
    <line id="Línea_1" data-name="Línea 1" transform="translate(20.57 25.998)" fill="none"/>
    <g id="Grupo_13" data-name="Grupo 13" transform="translate(4.8 2)">
      <path id="Trazado_16" data-name="Trazado 16" d="M27.385,26.542V15a.8.8,0,1,0-1.6,0V26.542A5.426,5.426,0,0,0,21.1,31.912a5.485,5.485,0,1,0,10.97,0A5.607,5.607,0,0,0,27.385,26.542Zm-.8,9.256a3.885,3.885,0,1,1,3.885-3.885A3.926,3.926,0,0,1,26.585,35.8Z" transform="translate(-2.473 -0.259)" fill="#fff"/>
      <path id="Trazado_17" data-name="Trazado 17" d="M31.1,25.2V6.114a4.114,4.114,0,1,0-8.228,0v19.2A9.308,9.308,0,0,0,17.5,33.768a9.37,9.37,0,0,0,18.741,0A8.9,8.9,0,0,0,31.1,25.2Zm-4,16.341a7.782,7.782,0,0,1-2.971-14.97.765.765,0,0,0,.457-.8V6.114a2.4,2.4,0,1,1,4.8,0V25.769a.962.962,0,0,0,.457.8,7.7,7.7,0,0,1,4.8,7.2A7.515,7.515,0,0,1,27.1,41.539Z" transform="translate(-2.987 -2)" fill="#fff"/>
      <path id="Trazado_18" data-name="Trazado 18" d="M31.2,7.8h3.885a.8.8,0,1,0,0-1.6H31.2a.8.8,0,1,0,0,1.6Z" transform="translate(-1.146 -1.4)" fill="#fff"/>
      <path id="Trazado_19" data-name="Trazado 19" d="M31.2,11.2h2.628a.8.8,0,0,0,0-1.6H31.2a.8.8,0,1,0,0,1.6Z" transform="translate(-1.146 -0.915)" fill="#fff"/>
      <path id="Trazado_20" data-name="Trazado 20" d="M35.085,13H31.2a.8.8,0,1,0,0,1.6h3.885a.8.8,0,1,0,0-1.6Z" transform="translate(-1.146 -0.43)" fill="#fff"/>
      <path id="Trazado_21" data-name="Trazado 21" d="M31.2,18.1h2.628a.8.8,0,0,0,0-1.6H31.2a.8.8,0,1,0,0,1.6Z" transform="translate(-1.146 0.07)" fill="#fff"/>
      <path id="Trazado_22" data-name="Trazado 22" d="M35.085,19.9H31.2a.8.8,0,1,0,0,1.6h3.885a.8.8,0,1,0,0-1.6Z" transform="translate(-1.146 0.555)" fill="#fff"/>
      <path id="Trazado_23" data-name="Trazado 23" d="M18.97,20.584a.763.763,0,0,0,0-1.143L17.6,18.07l-.114-.114a4.549,4.549,0,0,0,1.028-2.4H20.57a.8.8,0,0,0,0-1.6H18.513a4.549,4.549,0,0,0-1.028-2.4l.114-.114,1.371-1.371a.808.808,0,0,0-1.143-1.143l-1.371,1.257-.114.114a4.549,4.549,0,0,0-2.4-1.028V7.1a.8.8,0,1,0-1.6,0V9.271A4.545,4.545,0,0,0,9.828,10.3l-.114-.114L8.342,8.814A.808.808,0,0,0,7.2,9.957l1.371,1.371.114.114a4.549,4.549,0,0,0-1.028,2.4H5.6a.8.8,0,1,0,0,1.6H7.771a4.549,4.549,0,0,0,1.028,2.4l-.114.114L7.314,19.327a.763.763,0,0,0,0,1.143c0,.229.229.343.457.343a.873.873,0,0,0,.571-.229l1.371-1.371.114-.114a4.549,4.549,0,0,0,2.4,1.028V22.3a.8.8,0,1,0,1.6,0V20.241a4.549,4.549,0,0,0,2.4-1.028l.114.114L17.713,20.7a.873.873,0,0,0,.571.229Zm-5.942-2.171A3.771,3.771,0,1,1,16.8,14.642,3.731,3.731,0,0,1,13.028,18.413Z" transform="translate(-4.8 -1.386)" fill="#fff"/>
    </g>
  </g>
</svg>
