<svg xmlns="http://www.w3.org/2000/svg" width="44.163" height="35.102" viewBox="0 0 44.163 35.102">
  <g id="icono_cascada" data-name="icono cascada" transform="translate(0 -52.526)">
    <g id="Grupo_595" data-name="Grupo 595" transform="translate(10.293 52.526)">
      <g id="Grupo_594" data-name="Grupo 594">
        <path id="Trazado_1156" data-name="Trazado 1156" d="M139.213,52.526H123.378a.88.88,0,0,0-.88.88v23.68a2.462,2.462,0,0,0-3.167,2.36.88.88,0,1,0,1.759,0,.7.7,0,1,1,1.408,0,.88.88,0,0,0,.88.88H125.4a.88.88,0,0,0,.88-.88.7.7,0,1,1,1.408,0,2.463,2.463,0,1,0,4.927,0,.7.7,0,1,1,1.408,0,2.466,2.466,0,0,0,2.463,2.463h2.727a.88.88,0,0,0,.88-.88V53.406A.88.88,0,0,0,139.213,52.526Zm-.88,27.624h-1.847a.7.7,0,0,1-.7-.7,2.463,2.463,0,1,0-4.927,0,.7.7,0,1,1-1.408,0,2.463,2.463,0,0,0-4.764-.88h-.426V54.285h4.575v16.8a.88.88,0,1,0,1.759,0v-16.8h4.663v16.8a.88.88,0,1,0,1.759,0v-16.8h1.32Z" transform="translate(-119.331 -52.526)" fill="#212121"/>
      </g>
    </g>
    <g id="Grupo_597" data-name="Grupo 597" transform="translate(8.886 81.118)">
      <g id="Grupo_596" data-name="Grupo 596">
        <path id="Trazado_1157" data-name="Trazado 1157" d="M113.395,385.584a.88.88,0,0,0-.88.88.7.7,0,1,1-1.408,0,2.463,2.463,0,1,0-4.927,0,.7.7,0,1,1-1.408,0,.88.88,0,0,0-1.759,0,2.463,2.463,0,0,0,4.927,0,.7.7,0,1,1,1.408,0,2.463,2.463,0,0,0,4.927,0A.88.88,0,0,0,113.395,385.584Z" transform="translate(-103.014 -384)" fill="#212121"/>
      </g>
    </g>
    <g id="Grupo_599" data-name="Grupo 599" transform="translate(24.633 82.701)">
      <g id="Grupo_598" data-name="Grupo 598">
        <path id="Trazado_1158" data-name="Trazado 1158" d="M295.96,403.942a.88.88,0,0,0-.88.88.7.7,0,1,1-1.408,0,2.463,2.463,0,0,0-4.927,0,.7.7,0,1,1-1.408,0,.88.88,0,0,0-1.759,0,2.463,2.463,0,1,0,4.927,0,.7.7,0,1,1,1.408,0,2.463,2.463,0,1,0,4.927,0A.88.88,0,0,0,295.96,403.942Z" transform="translate(-285.579 -402.358)" fill="#212121"/>
      </g>
    </g>
    <g id="Grupo_601" data-name="Grupo 601" transform="translate(8.973 52.526)">
      <g id="Grupo_600" data-name="Grupo 600">
        <path id="Trazado_1159" data-name="Trazado 1159" d="M106.407,52.526h-1.5a.88.88,0,0,0,0,1.759h1.5a.88.88,0,0,0,0-1.759Z" transform="translate(-104.032 -52.526)" fill="#212121"/>
      </g>
    </g>
    <g id="Grupo_603" data-name="Grupo 603" transform="translate(0 52.526)">
      <g id="Grupo_602" data-name="Grupo 602">
        <path id="Trazado_1160" data-name="Trazado 1160" d="M6.6,52.526H.88a.88.88,0,1,0,0,1.759H6.6a.88.88,0,0,0,0-1.759Z" transform="translate(0 -52.526)" fill="#212121"/>
      </g>
    </g>
    <g id="Grupo_605" data-name="Grupo 605" transform="translate(16.539 54.813)">
      <g id="Grupo_604" data-name="Grupo 604">
        <path id="Trazado_1161" data-name="Trazado 1161" d="M192.625,79.044a.88.88,0,0,0-.88.88V90.3a.88.88,0,1,0,1.759,0V79.924A.88.88,0,0,0,192.625,79.044Z" transform="translate(-191.745 -79.044)" fill="#212121"/>
      </g>
    </g>
    <g id="Grupo_607" data-name="Grupo 607" transform="translate(23.049 54.813)">
      <g id="Grupo_606" data-name="Grupo 606">
        <path id="Trazado_1162" data-name="Trazado 1162" d="M268.1,79.044a.88.88,0,0,0-.88.88V90.3a.88.88,0,0,0,1.759,0V79.924A.88.88,0,0,0,268.1,79.044Z" transform="translate(-267.219 -79.044)" fill="#212121"/>
      </g>
    </g>
    <g id="Grupo_609" data-name="Grupo 609" transform="translate(16.539 68.537)">
      <g id="Grupo_608" data-name="Grupo 608">
        <path id="Trazado_1163" data-name="Trazado 1163" d="M192.625,238.151a.88.88,0,0,0-.88.88v5.454a.88.88,0,1,0,1.759,0v-5.454A.88.88,0,0,0,192.625,238.151Z" transform="translate(-191.745 -238.151)" fill="#212121"/>
      </g>
    </g>
    <g id="Grupo_611" data-name="Grupo 611" transform="translate(23.049 68.537)">
      <g id="Grupo_610" data-name="Grupo 610">
        <path id="Trazado_1164" data-name="Trazado 1164" d="M268.1,238.151a.88.88,0,0,0-.88.88v5.454a.88.88,0,1,0,1.759,0v-5.454A.88.88,0,0,0,268.1,238.151Z" transform="translate(-267.219 -238.151)" fill="#212121"/>
      </g>
    </g>
    <g id="Grupo_613" data-name="Grupo 613" transform="translate(32.638 52.526)">
      <g id="Grupo_612" data-name="Grupo 612">
        <path id="Trazado_1165" data-name="Trazado 1165" d="M389.036,52.526h-9.765a.88.88,0,1,0,0,1.759h9.765a.88.88,0,1,0,0-1.759Z" transform="translate(-378.391 -52.526)" fill="#212121"/>
      </g>
    </g>
    <g id="Grupo_615" data-name="Grupo 615" transform="translate(26.216 73.464)">
      <g id="Grupo_614" data-name="Grupo 614">
        <path id="Trazado_1166" data-name="Trazado 1166" d="M304.816,295.267a.88.88,0,0,0-.88.88v1.408a.88.88,0,1,0,1.759,0v-1.408A.88.88,0,0,0,304.816,295.267Z" transform="translate(-303.936 -295.267)" fill="#212121"/>
      </g>
    </g>
    <g id="Grupo_617" data-name="Grupo 617" transform="translate(19.794 73.464)">
      <g id="Grupo_616" data-name="Grupo 616">
        <path id="Trazado_1167" data-name="Trazado 1167" d="M230.362,295.267a.88.88,0,0,0-.88.88v1.408a.88.88,0,1,0,1.759,0v-1.408A.88.88,0,0,0,230.362,295.267Z" transform="translate(-229.482 -295.267)" fill="#212121"/>
      </g>
    </g>
    <g id="Grupo_619" data-name="Grupo 619" transform="translate(31.847 76.983)">
      <g id="Grupo_618" data-name="Grupo 618">
        <path id="Trazado_1168" data-name="Trazado 1168" d="M370.091,336.064a.88.88,0,0,0,0,1.759.7.7,0,0,1,.7.7.88.88,0,1,0,1.759,0A2.466,2.466,0,0,0,370.091,336.064Z" transform="translate(-369.211 -336.064)" fill="#212121"/>
      </g>
    </g>
  </g>
</svg>
