<svg xmlns="http://www.w3.org/2000/svg" width="40.118" height="36" viewBox="0 0 40.118 36">
  <path id="icono_llenado" data-name="icono llenado" d="M216.8,135a4.441,4.441,0,0,1,2.362-.922,6.749,6.749,0,0,1,3.665.489c.721.293,1.487.476,2.235.7a2.17,2.17,0,0,0,.424.032v-.519q0-8.123,0-16.245a2.391,2.391,0,0,1,1.291-2.328,2.3,2.3,0,0,1,3.332,1.878c.035.575.006,1.154.006,1.759h12.975c0-.5-.008-.99,0-1.476a2.323,2.323,0,1,1,4.638.078c.011,1.689,0,3.378,0,5.067q0,5.686,0,11.372c0,.126.011.253.018.408a6.233,6.233,0,0,0,2-.428,16.645,16.645,0,0,1,2.529-.789,6.049,6.049,0,0,1,3.719.593.667.667,0,0,1,.424.667q0,7.369,0,14.737a.6.6,0,0,1-.912.592,5.709,5.709,0,0,0-5.033.09,6.462,6.462,0,0,1-5.75,0,5.816,5.816,0,0,0-5.245.005,6.459,6.459,0,0,1-5.749-.006,5.772,5.772,0,0,0-5.208-.007,6.513,6.513,0,0,1-5.819-.012,5.649,5.649,0,0,0-4.315-.333c-.171.056-.336.128-.5.2-.563.242-.65.227-1.081-.2Zm1.163,14.223c.728-.095,1.424-.233,2.126-.267a7.92,7.92,0,0,1,3.382.829,7.187,7.187,0,0,0,1.941.444,5.844,5.844,0,0,0,3.046-.716,6.494,6.494,0,0,1,3.165-.539,9.994,9.994,0,0,1,2.843.814,8.017,8.017,0,0,0,1.942.442,5.831,5.831,0,0,0,3.045-.717,6.433,6.433,0,0,1,3.165-.54,9.914,9.914,0,0,1,2.841.821,7.655,7.655,0,0,0,1.9.433,5.713,5.713,0,0,0,3.013-.687,6.029,6.029,0,0,1,3.311-.549c.518.063,1.031.171,1.57.262,0-1.124-.009-2.245.007-3.365a.384.384,0,0,0-.311-.438,5.638,5.638,0,0,0-4.357.27,6.717,6.717,0,0,1-6.037-.016,5.438,5.438,0,0,0-4.885-.009,6.675,6.675,0,0,1-5.964.047,5.869,5.869,0,0,0-4.029-.432c-.423.107-.721-.052-.8-.379-.091-.354.1-.624.544-.739a6.633,6.633,0,0,1,4.383.338,11.151,11.151,0,0,0,1.625.6,5.824,5.824,0,0,0,3.933-.557,6.5,6.5,0,0,1,5.468-.018,10.657,10.657,0,0,0,1.593.575,5.424,5.424,0,0,0,3.753-.488,6.529,6.529,0,0,1,3.452-.644c.534.046,1.061.178,1.609.274V140.6a4.718,4.718,0,0,0-2.937-.361A17.257,17.257,0,0,0,250,141a6.786,6.786,0,0,1-4.138.21c-.414-.109-.6-.379-.515-.725a.56.56,0,0,1,.762-.39,5.969,5.969,0,0,0,4.237-.511,5.894,5.894,0,0,1,3.2-.566c.567.053,1.128.17,1.709.261,0-1.108-.012-2.217.008-3.325a.431.431,0,0,0-.355-.489,5.392,5.392,0,0,0-4.067.183,7.709,7.709,0,0,1-3.423.815,9.843,9.843,0,0,1-2.75-.715,12.728,12.728,0,0,0-2.35-.566,5.683,5.683,0,0,0-3.045.711,6.4,6.4,0,0,1-3.472.517,9.213,9.213,0,0,1-2.566-.812,4.533,4.533,0,0,0-2.828-.361,17.91,17.91,0,0,0-2.232.725,7.4,7.4,0,0,1-2.525.5,8.083,8.083,0,0,1-3.379-.851,5.215,5.215,0,0,0-4.027-.107c-.11.04-.267.166-.268.254-.018,1.181-.012,2.363-.012,3.551,2.674-.5,3.088-.44,5.581.552a7.017,7.017,0,0,0,1.721.394,6.48,6.48,0,0,0,3.244-.706,8.448,8.448,0,0,1,1.966-.514,7.007,7.007,0,0,1,3.783.7,7.585,7.585,0,0,0,1.965.51,6,6,0,0,0,3.274-.722,6.393,6.393,0,0,1,4.234-.342c.439.107.635.381.547.741a.6.6,0,0,1-.8.394,5.607,5.607,0,0,0-3.909.435,6.887,6.887,0,0,1-2.482.671,7.738,7.738,0,0,1-3.738-.783,6.7,6.7,0,0,0-1.742-.456,6.237,6.237,0,0,0-3.217.631,9.31,9.31,0,0,1-2.262.587,6.891,6.891,0,0,1-3.806-.79,5.429,5.429,0,0,0-3.814-.232c-.4.11-.62.273-.551.732a6.319,6.319,0,0,1,.009.927v2.249a1.738,1.738,0,0,0,.229-.032,6.838,6.838,0,0,1,4.964.421,7.291,7.291,0,0,0,1.269.45,5.246,5.246,0,0,0,2.639-.049.6.6,0,0,1,.789.423.589.589,0,0,1-.476.689,6.092,6.092,0,0,1-2.983.112,23.885,23.885,0,0,1-2.325-.816,5.333,5.333,0,0,0-3.851,0,.435.435,0,0,0-.242.31C217.956,146.943,217.963,148.09,217.963,149.225Zm8.685-13.956c.683-.267,1.27-.517,1.871-.724a.587.587,0,0,0,.457-.665c-.014-4.152-.008-8.3-.007-12.456,0-1.057.01-2.115-.009-3.172a1.12,1.12,0,0,0-1.093-1.128,1.139,1.139,0,0,0-1.2,1.024,3.641,3.641,0,0,0-.021.5q0,8.007,0,16.014Zm19.922.017v-.5q0-8.143,0-16.286a2.346,2.346,0,0,0-.04-.461,1.14,1.14,0,0,0-1.1-.914,1.152,1.152,0,0,0-1.177,1.282q0,4.294,0,8.588,0,3.5,0,7c0,.13.02.343.093.375C245.046,134.68,245.759,134.958,246.569,135.285Zm-16.418-1.234a1.827,1.827,0,0,0,.208,0,6.2,6.2,0,0,1,3.569.581,5.853,5.853,0,0,0,5.385,0,7.076,7.076,0,0,1,1.953-.553,11.867,11.867,0,0,1,1.8-.019v-2.515H230.151Zm0-7.2h12.908v-2.31H230.155Zm-.007,3.483h12.907v-2.272H230.148Zm0-7.007h12.909v-2.263H230.15Z" transform="translate(-216.55 -115.686)" fill="#212121" stroke="#212121" stroke-width="0.5"/>
</svg>
