<svg xmlns="http://www.w3.org/2000/svg" xmlns:xlink="http://www.w3.org/1999/xlink" width="134" height="168.918" viewBox="0 0 134 168.918"><defs><clipPath id="a"><rect width="121.083" height="121.083" rx="17.484" fill="none"/></clipPath></defs><g transform="translate(-94 -294.756)"><text transform="translate(94 455.674)" fill="#262626" font-size="33" font-family="SegoeUI, Segoe UI"><tspan x="0" y="0">Pool App</tspan></text><g transform="translate(96.218 294.756)"><rect width="121.083" height="121.083" rx="17.484" transform="translate(0 0)" fill="#0071bc" style="mix-blend-mode:multiply;isolation:isolate"/><g transform="translate(19.798 29.088)"><path d="M928.083,409.933a5.04,5.04,0,0,1,1.857-4.147,9.623,9.623,0,0,1,10.283-.018,5.039,5.039,0,0,1,1.858,4.183,5.154,5.154,0,0,1-1.858,4.224,9.459,9.459,0,0,1-10.283,0A5.174,5.174,0,0,1,928.083,409.933Zm.734,50.522V428.44q0-6.005,5.574-6.048h1.3q5.575,0,5.617,6.048v32.016q0,5.92-5.487,5.919h-1.34Q928.818,466.374,928.817,460.455Z" transform="translate(-928.083 -404.288)" fill="#fff"/><path d="M957.855,458.956q-8.284-8.268-8.281-21.441t8.381-21.524q8.372-8.354,21.322-8.353t21.114,8.285q8.155,8.29,8.159,21.484a29.5,29.5,0,0,1-5.789,17.97l6.87,7.27a.635.635,0,0,1,.086.169,2.689,2.689,0,0,1-.648,1.2,8.408,8.408,0,0,1-2.7,2.157,8.084,8.084,0,0,1-4,1.048q-4.04,0-7.906-4.231a29.872,29.872,0,0,1-15.31,4.231Q966.139,467.219,957.855,458.956Zm4.81-21.463a18.851,18.851,0,0,0,4.681,13.153,15.4,15.4,0,0,0,11.932,5.166,18.677,18.677,0,0,0,7.425-1.476l-5.567-5.905a7.3,7.3,0,0,1-1.945-4.123,4.326,4.326,0,0,1-.043-.609,4.589,4.589,0,0,1,1.426-3.341l.561-.521a4.772,4.772,0,0,1,3.017-1.171q2.333,0,4.832,2.689l5.135,5.513a21.9,21.9,0,0,0,1.944-9.376q0-8.073-4.638-13.261a16.712,16.712,0,0,0-24.167-.043Q962.669,429.33,962.665,437.492Z" transform="translate(-928.23 -404.311)" fill="#fff"/></g></g></g></svg>