<svg xmlns="http://www.w3.org/2000/svg" width="89" height="71.622" viewBox="0 0 89 71.622">
  <defs>
    <style>
      .cls-1, .cls-2 {
        fill: #0960ab;
      }

      .cls-1 {
        font-size: 22px;
        font-family: SegoeUI, Segoe UI;
      }
    </style>
  </defs>
  <g id="Logo_iQ_Pool_App" data-name="Logo iQ Pool App" transform="translate(-166 -67.083)">
    <text id="Pool_App" data-name="Pool App" class="cls-1" transform="translate(166 132.704)"><tspan x="0" y="0">Pool App</tspan></text>
    <g id="Logo" transform="translate(-748.083 -337.205)">
      <path id="Trazado_32" data-name="Trazado 32" class="cls-2" d="M928.083,408.035a3.345,3.345,0,0,1,1.233-2.753,6.387,6.387,0,0,1,6.825-.012,3.344,3.344,0,0,1,1.233,2.776,3.42,3.42,0,0,1-1.233,2.8,6.278,6.278,0,0,1-6.825,0A3.434,3.434,0,0,1,928.083,408.035Zm.487,33.532V420.317q0-3.986,3.7-4.014h.86q3.7,0,3.728,4.014v21.249q0,3.929-3.642,3.929h-.889Q928.57,445.495,928.57,441.566Z"/>
      <path id="Trazado_33" data-name="Trazado 33" class="cls-2" d="M955.07,441.7q-5.5-5.487-5.5-14.231t5.563-14.285a19.19,19.19,0,0,1,14.152-5.544q8.6,0,14.013,5.5t5.415,14.259a19.578,19.578,0,0,1-3.842,11.927l4.559,4.825a.419.419,0,0,1,.057.112,1.785,1.785,0,0,1-.43.8,5.58,5.58,0,0,1-1.792,1.432,5.366,5.366,0,0,1-2.652.7q-2.681,0-5.248-2.808a19.827,19.827,0,0,1-10.161,2.808Q960.568,447.181,955.07,441.7Zm3.192-14.245a12.512,12.512,0,0,0,3.107,8.73,10.218,10.218,0,0,0,7.919,3.429,12.4,12.4,0,0,0,4.928-.98l-3.695-3.919a4.847,4.847,0,0,1-1.291-2.736,2.873,2.873,0,0,1-.028-.4,3.046,3.046,0,0,1,.947-2.217l.372-.346a3.167,3.167,0,0,1,2-.777,4.587,4.587,0,0,1,3.207,1.785l3.408,3.659a14.538,14.538,0,0,0,1.291-6.223,12.714,12.714,0,0,0-3.078-8.8,11.092,11.092,0,0,0-16.039-.028A12.763,12.763,0,0,0,958.262,427.452Z" transform="translate(-7.325 -1.141)"/>
    </g>
  </g>
</svg>
