<svg id="Capa_1" enable-background="new 0 0 512 512" height="512" viewBox="0 0 512 512" width="512" xmlns="http://www.w3.org/2000/svg"><g><path d="m497 226h-61c-8.284 0-15 6.716-15 15s6.716 15 15 15h61c8.284 0 15-6.716 15-15s-6.716-15-15-15z"/><path d="m15 256h61c8.284 0 15-6.716 15-15s-6.716-15-15-15h-61c-8.284 0-15 6.716-15 15s6.716 15 15 15z"/><path d="m476.836 113.5c-4.142-7.174-13.315-9.633-20.49-5.49l-51.961 30c-7.174 4.142-9.632 13.316-5.49 20.49 4.163 7.21 13.35 9.613 20.49 5.49l51.961-30c7.175-4.142 9.633-13.316 5.49-20.49z"/><path d="m92.615 318.01-51.961 30c-7.174 4.142-9.632 13.316-5.49 20.49 4.163 7.21 13.35 9.613 20.49 5.49l51.961-30c7.174-4.142 9.632-13.316 5.49-20.49-4.141-7.174-13.316-9.633-20.49-5.49z"/><path d="m153.01 389.385-30 51.961c-4.142 7.174-1.684 16.348 5.49 20.49 7.142 4.125 16.331 1.715 20.49-5.49l30-51.961c4.142-7.174 1.684-16.348-5.49-20.49-7.174-4.145-16.349-1.685-20.49 5.49z"/><path d="m241 421v60c0 8.284 6.716 15 15 15s15-6.716 15-15v-60c0-8.284-6.716-15-15-15s-15 6.716-15 15z"/><path d="m338.5 383.895c-7.174 4.142-9.632 13.316-5.49 20.49l30 51.961c4.163 7.21 13.35 9.613 20.49 5.49 7.174-4.142 9.632-13.316 5.49-20.49l-30-51.961c-4.142-7.175-13.316-9.633-20.49-5.49z"/><path d="m107.615 138.01-51.961-30c-7.175-4.145-16.349-1.684-20.49 5.49-4.142 7.174-1.684 16.348 5.49 20.49l51.961 30c7.142 4.125 16.331 1.715 20.49-5.49 4.143-7.174 1.685-16.348-5.49-20.49z"/><path d="m398.895 323.5c-4.142 7.174-1.684 16.348 5.49 20.49l51.961 30c7.142 4.125 16.331 1.715 20.49-5.49 4.142-7.174 1.684-16.348-5.49-20.49l-51.961-30c-7.176-4.145-16.349-1.684-20.49 5.49z"/><path d="m331 129.343v-98.343c0-8.284-6.716-15-15-15h-120c-8.284 0-15 6.716-15 15v98.343c-37.116 24.911-60 66.241-60 111.657 0 74.439 60.561 135 135 135s135-60.561 135-135c0-45.417-22.885-86.746-60-111.657zm-30-83.343v30h-90v-30zm-45 300c-57.897 0-105-47.103-105-105 0-37.452 19.643-71.244 52.545-90.393 4.616-2.687 7.455-7.624 7.455-12.964v-31.643h30v68.787l-25.606 25.606c-5.858 5.858-5.858 15.355 0 21.213 5.857 5.858 15.355 5.858 21.213 0l19.393-19.393 19.394 19.393c5.857 5.858 15.355 5.859 21.213 0 5.858-5.858 5.858-15.355 0-21.213l-25.607-25.606v-68.787h30v31.643c0 5.34 2.839 10.278 7.455 12.964 32.902 19.149 52.545 52.941 52.545 90.393 0 57.897-47.103 105-105 105z"/></g></svg>