<svg xmlns="http://www.w3.org/2000/svg" width="41.001" height="38.521" viewBox="0 0 41.001 38.521">
  <defs>
    <style>
      .cls-1 {
        fill: #212121;
      }
    </style>
  </defs>
  <g id="_763860" data-name="763860" transform="translate(0.001 -15.482)">
    <g id="Grupo_1287" data-name="Grupo 1287" transform="translate(-0.001 15.482)">
      <g id="Grupo_1286" data-name="Grupo 1286" transform="translate(0 0)">
        <path id="Trazado_3139" data-name="Trazado 3139" class="cls-1" d="M40.329,41.533a5.036,5.036,0,0,1-.921-.588,6.888,6.888,0,0,0-7.294-.928L26.788,34.69a4.8,4.8,0,1,0-5.078-5.078l-3.321-3.321,4.659-4.659a3.6,3.6,0,0,0-5.1-5.1l-7.207,7.207a3.6,3.6,0,0,0,0,5.1L14.7,32.794,7.888,39.607a6.912,6.912,0,0,0-6.176,1.338A5.006,5.006,0,0,1,.7,41.578a1.2,1.2,0,1,0,1.011,2.179,7.4,7.4,0,0,0,1.506-.937,4.55,4.55,0,0,1,5.786,0,6.811,6.811,0,0,0,8.708,0,4.434,4.434,0,0,1,5.706,0,6.811,6.811,0,0,0,8.708,0,4.55,4.55,0,0,1,5.786,0,7.433,7.433,0,0,0,1.362.868,1.2,1.2,0,0,0,1.06-2.156ZM26.506,27.492a2.4,2.4,0,1,1-2.4,2.4A2.405,2.405,0,0,1,26.506,27.492ZM24.914,40.945a6.814,6.814,0,0,0-8.708,0,4.434,4.434,0,0,1-5.706,0c-.1-.083-.209-.161-.315-.237l7.064-7.064a1.2,1.2,0,0,0,0-1.7l-4.8-4.8a1.2,1.2,0,0,1,0-1.7l7.207-7.207a1.2,1.2,0,0,1,1.7,1.7l-5.509,5.509a1.2,1.2,0,0,0,0,1.7l14.2,14.2A4.41,4.41,0,0,1,24.914,40.945Z" transform="translate(0.001 -15.482)"/>
      </g>
    </g>
    <g id="Grupo_1289" data-name="Grupo 1289" transform="translate(0 44.173)">
      <g id="Grupo_1288" data-name="Grupo 1288" transform="translate(0)">
        <path id="Trazado_3140" data-name="Trazado 3140" class="cls-1" d="M40.33,375.918a5.034,5.034,0,0,1-.921-.588,6.91,6.91,0,0,0-8.788,0,4.434,4.434,0,0,1-5.706,0,6.814,6.814,0,0,0-8.708,0,4.434,4.434,0,0,1-5.706,0,6.91,6.91,0,0,0-8.788,0,5.005,5.005,0,0,1-1.016.634,1.2,1.2,0,1,0,1.011,2.179,7.4,7.4,0,0,0,1.506-.937,4.55,4.55,0,0,1,5.786,0,6.811,6.811,0,0,0,8.708,0,4.434,4.434,0,0,1,5.706,0,6.811,6.811,0,0,0,8.708,0,4.55,4.55,0,0,1,5.786,0,7.431,7.431,0,0,0,1.362.868,1.2,1.2,0,1,0,1.06-2.156Z" transform="translate(-0.001 -373.753)"/>
      </g>
    </g>
    <g id="Grupo_1291" data-name="Grupo 1291" transform="translate(0 48.977)">
      <g id="Grupo_1290" data-name="Grupo 1290" transform="translate(0)">
        <path id="Trazado_3141" data-name="Trazado 3141" class="cls-1" d="M40.33,435.917a5.036,5.036,0,0,1-.921-.588,6.91,6.91,0,0,0-8.788,0,4.434,4.434,0,0,1-5.706,0,6.814,6.814,0,0,0-8.708,0,4.434,4.434,0,0,1-5.706,0,6.91,6.91,0,0,0-8.788,0,5.005,5.005,0,0,1-1.016.634,1.2,1.2,0,0,0,1.011,2.179,7.4,7.4,0,0,0,1.506-.937,4.55,4.55,0,0,1,5.786,0,6.811,6.811,0,0,0,8.708,0,4.434,4.434,0,0,1,5.706,0,6.811,6.811,0,0,0,8.708,0,4.55,4.55,0,0,1,5.786,0,7.434,7.434,0,0,0,1.362.868,1.2,1.2,0,1,0,1.06-2.156Z" transform="translate(-0.001 -433.752)"/>
      </g>
    </g>
  </g>
</svg>
