<?xml version="1.0" encoding="utf-8"?>
<!-- Generator: Adobe Illustrator 17.0.0, SVG Export Plug-In . SVG Version: 6.00 Build 0)  -->
<!DOCTYPE svg PUBLIC "-//W3C//DTD SVG 1.1//EN" "http://www.w3.org/Graphics/SVG/1.1/DTD/svg11.dtd">
<svg version="1.1" id="Capa_1" xmlns="http://www.w3.org/2000/svg" xmlns:xlink="http://www.w3.org/1999/xlink" x="0px" y="0px"
	 width="40px" height="40px" viewBox="0 0 40 40" enable-background="new 0 0 40 40" xml:space="preserve">
<g>
	<path d="M20,2C10.1,2,2,10.1,2,20s8.1,18,18,18c9.9,0,18-8.1,18-18S29.9,2,20,2z M20,3.7c9,0,16.3,7.3,16.3,16.3c0,2-0.3,3.8-1,5.6
		h-7l-0.3,0.3C26.2,28.5,23.2,30,20,30c-3.2,0-6.2-1.5-8.1-4.1l-0.3-0.3h-7c-0.6-1.7-1-3.6-1-5.6C3.7,11,11,3.7,20,3.7z M20,36.3
		c-6.4,0-11.9-3.7-14.6-9h5.4c2.2,2.8,5.6,4.4,9.2,4.4c3.6,0,7-1.7,9.2-4.4h5.4C31.9,32.6,26.4,36.3,20,36.3z"/>
	<path d="M7.6,20.8c0.5,0,0.9-0.4,0.9-0.9c0-6.1,4.7-11.1,10.7-11.5v9c-1.1,0.4-1.9,1.4-1.9,2.6c0,1.5,1.2,2.8,2.8,2.8
		c1.5,0,2.8-1.2,2.8-2.8c0-1.2-0.8-2.3-1.9-2.6V4.7c0-0.5-0.4-0.9-0.9-0.9s-0.9,0.4-0.9,0.9v2C12.2,7.1,6.7,12.9,6.7,19.9
		C6.7,20.4,7.1,20.8,7.6,20.8z M20,21.1c-0.6,0-1.1-0.5-1.1-1.1c0-0.6,0.5-1.1,1.1-1.1c0.6,0,1.1,0.5,1.1,1.1
		C21.1,20.6,20.6,21.1,20,21.1z"/>
	<path d="M23.9,9.1c4.6,1.6,7.6,6,7.6,10.9c0,0.5,0.4,0.9,0.9,0.9c0.5,0,0.9-0.4,0.9-0.9c0-5.6-3.5-10.6-8.7-12.5
		c-0.4-0.2-0.9,0.1-1.1,0.5C23.3,8.4,23.5,8.9,23.9,9.1z"/>
</g>
</svg>
