<?xml version="1.0" encoding="UTF-8"?>
<svg width="48px" height="48px" viewBox="0 0 48 48" version="1.1" xmlns="http://www.w3.org/2000/svg" xmlns:xlink="http://www.w3.org/1999/xlink">
    <!-- Generator: Sketch 52.6 (67491) - http://www.bohemiancoding.com/sketch -->
    <title>ico/programar</title>
    <desc>Created with Sketch.</desc>
    <g id="ico/programar" stroke="none" stroke-width="1" fill="none" fill-rule="evenodd">
        <g id="iconfinder_hours-definitions_4172177" transform="translate(4.000000, 3.000000)" fill="#000000">
            <path d="M12.9393515,18.9240329 L11,18.9240329 L11,23.0785927 L12.9393515,23.0785927 C13.1765195,24.004551 13.5615893,24.8736216 14.0823087,25.6464204 L12.7511924,26.9784702 L15.1079946,29.3336251 L16.4592395,27.9831962 C17.2048746,28.4680553 18.0318995,28.8338876 18.9166849,29.0605636 L18.9166849,31 L23.0833151,31 L23.0833151,29.0605636 C23.987354,28.826886 24.8353827,28.4523018 25.5923949,27.9499387 L26.8928806,29.248731 L29.2488076,26.8935761 L27.949197,25.5947838 C28.4497878,24.8386137 28.8243557,23.9922983 29.0588982,23.0899702 L31,23.0899702 L31,18.9100298 L29.0588982,18.9100298 C28.8296066,18.0287065 28.4664158,17.2025206 27.9824531,16.4594784 L29.2496828,15.191318 L26.8937557,12.8352879 L25.6457795,14.0824435 C24.8765151,13.5652022 24.0136087,13.1818659 23.0920667,12.9429372 L23.0920667,11 L18.9088085,11 L18.9088085,12.9429372 C18.0073951,13.1774899 17.1637422,13.5503238 16.4076051,14.0518117 L15.1097449,12.751269 L12.7529427,15.1090495 L14.0516781,16.4078418 C13.5458364,17.1675127 13.1712685,18.0182041 12.9393515,18.9240329 Z M17.5724413,21.0008752 C17.5724413,19.1078243 19.1074695,17.5727289 20.9995624,17.5727289 C22.8934057,17.5727289 24.4284339,19.1078243 24.4284339,21.0008752 C24.4284339,22.8939261 22.8934057,24.4290215 20.9995624,24.4290215 C19.1074695,24.4290215 17.5724413,22.8939261 17.5724413,21.0008752 Z" id="Shape" fill-rule="nonzero"></path>
            <path d="M26.2897986,8.69276767 L27.1277553,7.85648815 L27.0918928,7.85648815 L29.3267356,5.62611846 C26.8426051,4.27131072 23.9998501,3.49177251 20.9690358,3.49177251 C11.6290548,3.49177251 4.02096766,10.8026712 3.52326686,20 L0,20 C0.499450192,8.87084806 9.69423202,0 20.9690358,0 C24.9716349,0 28.705703,1.12871546 31.8878393,3.07014098 L34.0894437,0.872943128 L34.0894437,0.909606739 L35,0 L35,8.48064249 L34.7874494,8.69276767 L26.2897986,8.69276767 Z" id="Path"></path>
            <path d="M32.2897986,30.6927677 L33.1277553,29.8564881 L33.0918928,29.8564881 L35.3267356,27.6261185 C32.8426051,26.2713107 29.9998501,25.4917725 26.9690358,25.4917725 C17.6290548,25.4917725 10.0209677,32.8026712 9.52326686,42 L6,42 C6.49945019,30.8708481 15.694232,22 26.9690358,22 C30.9716349,22 34.705703,23.1287155 37.8878393,25.070141 L40.0894437,22.8729431 L40.0894437,22.9096067 L41,22 L41,30.4806425 L40.7874494,30.6927677 L32.2897986,30.6927677 Z" id="Path" transform="translate(23.500000, 32.000000) scale(-1, -1) translate(-23.500000, -32.000000) "></path>
        </g>
    </g>
</svg>