<?xml version="1.0" encoding="UTF-8"?>
<svg width="48px" height="48px" viewBox="0 0 48 48" version="1.1" xmlns="http://www.w3.org/2000/svg" xmlns:xlink="http://www.w3.org/1999/xlink">
    <!-- Generator: Sketch 52.6 (67491) - http://www.bohemiancoding.com/sketch -->
    <title>ico/programacion horaria</title>
    <desc>Created with Sketch.</desc>
    <g id="ico/programacion-horaria" stroke="none" stroke-width="1" fill="none" fill-rule="evenodd">
        <g id="iconfinder_clock_172584" transform="translate(4.000000, 4.000000)">
            <rect id="Rectangle" x="0" y="0" width="40" height="40"></rect>
            <path d="M18.0743846,39.1046412 C18.7077029,39.1677081 19.3500804,39.2 20,39.2 C30.6038672,39.2 39.2,30.6038672 39.2,20 C39.2,9.3961328 30.6038672,0.8 20,0.8" id="Path" stroke="#000000" stroke-width="2" stroke-linecap="round"></path>
            <circle id="Oval" fill="#000000" cx="20" cy="20" r="2.4"></circle>
            <polyline id="Path" stroke="#000000" stroke-width="2" stroke-linecap="round" transform="translate(22.800000, 15.600000) scale(-1, 1) translate(-22.800000, -15.600000) " points="19.6 26.4 26 20 26 4.8"></polyline>
        </g>
        <g id="iconfinder_hours-definitions_4172177" transform="translate(2.000000, 3.000000)" fill="#000000">
            <path d="M1.93935151,28.9240329 L0,28.9240329 L0,33.0785927 L1.93935151,33.0785927 C2.17651949,34.004551 2.56158929,34.8736216 3.08230867,35.6464204 L1.7511924,36.9784702 L4.10799457,39.3336251 L5.45923949,37.9831962 C6.20487463,38.4680553 7.03189953,38.8338876 7.9166849,39.0605636 L7.9166849,41 L12.0833151,41 L12.0833151,39.0605636 C12.987354,38.826886 13.8353827,38.4523018 14.5923949,37.9499387 L15.8928806,39.248731 L18.2488076,36.8935761 L16.949197,35.5947838 C17.4497878,34.8386137 17.8243557,33.9922983 18.0588982,33.0899702 L20,33.0899702 L20,28.9100298 L18.0588982,28.9100298 C17.8296066,28.0287065 17.4664158,27.2025206 16.9824531,26.4594784 L18.2496828,25.191318 L15.8937557,22.8352879 L14.6457795,24.0824435 C13.8765151,23.5652022 13.0136087,23.1818659 12.0920667,22.9429372 L12.0920667,21 L7.90880847,21 L7.90880847,22.9429372 C7.00739509,23.1774899 6.16374218,23.5503238 5.40760513,24.0518117 L4.10974489,22.751269 L1.75294272,25.1090495 L3.05167812,26.4078418 C2.54583643,27.1675127 2.17126854,28.0182041 1.93935151,28.9240329 Z M6.57244125,31.0008752 C6.57244125,29.1078243 8.10746948,27.5727289 9.99956242,27.5727289 C11.8934057,27.5727289 13.4284339,29.1078243 13.4284339,31.0008752 C13.4284339,32.8939261 11.8934057,34.4290215 9.99956242,34.4290215 C8.10746948,34.4290215 6.57244125,32.8939261 6.57244125,31.0008752 Z" id="Shape" fill-rule="nonzero"></path>
            <path d="M27.2897986,8.69276767 L28.1277553,7.85648815 L28.0918928,7.85648815 L30.3267356,5.62611846 C27.8426051,4.27131072 24.9998501,3.49177251 21.9690358,3.49177251 C12.6290548,3.49177251 5.02096766,10.8026712 4.52326686,20 L1,20 C1.49945019,8.87084806 10.694232,0 21.9690358,0 C25.9716349,0 29.705703,1.12871546 32.8878393,3.07014098 L35.0894437,0.872943128 L35.0894437,0.909606739 L36,0 L36,8.48064249 L35.7874494,8.69276767 L27.2897986,8.69276767 Z" id="Path"></path>
        </g>
    </g>
</svg>