<?xml version="1.0" encoding="iso-8859-1"?>
<!-- Generator: Adobe Illustrator 17.1.0, SVG Export Plug-In . SVG Version: 6.00 Build 0)  -->
<!DOCTYPE svg PUBLIC "-//W3C//DTD SVG 1.1//EN" "http://www.w3.org/Graphics/SVG/1.1/DTD/svg11.dtd">
<svg version="1.1" id="Capa_1" xmlns="http://www.w3.org/2000/svg" xmlns:xlink="http://www.w3.org/1999/xlink" x="0px" y="0px"
	 viewBox="0 0 449.657 449.657" style="enable-background:new 0 0 449.657 449.657;" xml:space="preserve">
<g>
	<path d="M442.862,232.922c-5.231-1.773-10.908,1.033-12.679,6.265c-4.808,14.199-16.823,23.738-29.899,23.738
		c-13.494,0-22.379-6.871-27.165-21.004c-1.544-4.56-6.056-7.274-10.654-6.722c-4.6-0.557-9.116,2.159-10.661,6.722
		c-4.786,14.133-13.671,21.004-27.165,21.004c-13.076,0-25.091-9.54-29.899-23.738c-0.133-0.392-0.294-0.765-0.469-1.129
		c-0.332-0.878-0.789-1.725-1.385-2.511l-55.261-72.827c-2.324-3.062-6.392-6.311-9.894-7.901l-65.254-29.621
		c-4.854-2.204-11.279-2.008-15.992,0.486L59.64,171.67c-5.662,2.997-9.099,9.773-8.173,16.112l3.217,22.03
		c0.618,4.225,3.052,7.75,6.679,9.672c3.626,1.922,7.911,1.957,11.753,0.095l80.078-38.786l20.779,11.25
		c0,0-53.898,40.882-56.803,47.414c-4.869,14.046-16.805,23.468-29.797,23.468c-13.076,0-25.091-9.54-29.898-23.738
		c-1.771-5.231-7.447-8.037-12.679-6.265c-5.231,1.771-8.036,7.447-6.265,12.679c7.559,22.325,27.187,37.324,48.842,37.324
		c15.419,0,29.806-7.609,39.545-20.048c9.739,12.439,24.126,20.048,39.545,20.048s29.806-7.609,39.544-20.048
		c9.739,12.439,24.126,20.048,39.545,20.048s29.806-7.609,39.544-20.048c9.739,12.439,24.126,20.048,39.545,20.048
		c16.012,0,28.996-6.404,37.822-18.356c8.826,11.952,21.81,18.356,37.822,18.356c21.655,0,41.284-15,48.842-37.324
		C450.898,240.369,448.093,234.693,442.862,232.922z M245.551,262.925c-13.076,0-25.091-9.54-29.899-23.738
		c-1.415-4.178-5.32-6.801-9.501-6.788c-0.049-0.002-0.099-0.003-0.148-0.004c-0.044,0.001-0.088,0.002-0.133,0.003
		c-4.183-0.017-8.094,2.607-9.509,6.788c-4.808,14.199-16.823,23.738-29.898,23.738c-11.42,0-22.029-7.278-27.736-18.579
		l56.478-43.395c3.516-2.702,5.416-6.815,5.082-11.004c-0.334-4.188-2.861-7.95-6.76-10.061l-31.801-17.217
		c-4.799-2.598-11.325-2.745-16.237-0.367l-72.409,35.071l-1.381-9.459l83.341-44.131l64.403,29.234
		c0.585,0.289,1.855,1.303,2.25,1.79l52.039,68.58C268.149,255.228,257.286,262.925,245.551,262.925z"/>
	<path d="M326.483,300.657c-5.232-1.772-10.907,1.034-12.679,6.265c-4.786,14.133-13.671,21.004-27.165,21.004
		c-13.076,0-25.091-9.54-29.899-23.738c-1.413-4.174-5.314-6.796-9.491-6.787c-0.057-0.002-0.113-0.003-0.17-0.004
		c-0.037,0.001-0.074,0.002-0.111,0.003c-4.188-0.021-8.103,2.605-9.52,6.789c-4.808,14.199-16.823,23.738-29.898,23.738
		c-13.076,0-25.091-9.54-29.899-23.738c-1.414-4.174-5.315-6.796-9.491-6.787c-0.057-0.002-0.113-0.003-0.17-0.004
		c-0.037,0.001-0.074,0.002-0.111,0.003c-4.188-0.021-8.103,2.605-9.519,6.789c-4.808,14.199-16.823,23.738-29.898,23.738
		c-13.076,0-25.091-9.54-29.899-23.738c-1.413-4.174-5.314-6.796-9.491-6.787c-0.057-0.002-0.113-0.003-0.17-0.004
		c-0.037,0.001-0.074,0.002-0.111,0.003c-4.188-0.021-8.104,2.605-9.52,6.789c-4.808,14.199-16.823,23.738-29.899,23.738
		c-13.076,0-25.091-9.54-29.898-23.738c-1.771-5.231-7.447-8.037-12.679-6.265c-5.231,1.771-8.036,7.447-6.265,12.679
		c7.559,22.325,27.187,37.324,48.842,37.324c15.419,0,29.806-7.609,39.545-20.048c9.739,12.439,24.126,20.048,39.545,20.048
		s29.806-7.609,39.544-20.048c9.739,12.439,24.126,20.048,39.545,20.048s29.806-7.609,39.544-20.048
		c9.739,12.439,24.126,20.048,39.545,20.048c22.181,0,38.556-12.284,46.108-34.59C334.519,308.104,331.714,302.428,326.483,300.657z
		"/>
	<path d="M318.934,215.686c2.756,0,5.546-0.203,8.291-0.604c31.085-4.54,52.681-33.523,48.141-64.607
		c-4.058-27.788-28.268-48.742-56.315-48.742c-2.757,0-5.546,0.203-8.292,0.604c-31.083,4.54-52.678,33.521-48.139,64.604
		C266.678,194.73,290.888,215.686,318.934,215.686z M313.649,122.126c1.792-0.262,3.609-0.394,5.402-0.394
		c18.189,0,33.892,13.599,36.525,31.632c2.946,20.172-11.068,38.981-31.241,41.927c-1.791,0.262-3.608,0.394-5.401,0.394
		c-18.188,0-33.89-13.601-36.524-31.636C279.465,143.879,293.478,125.073,313.649,122.126z"/>
</g>
<g>
</g>
<g>
</g>
<g>
</g>
<g>
</g>
<g>
</g>
<g>
</g>
<g>
</g>
<g>
</g>
<g>
</g>
<g>
</g>
<g>
</g>
<g>
</g>
<g>
</g>
<g>
</g>
<g>
</g>
</svg>
