<svg id="_1827463" data-name="1827463" xmlns="http://www.w3.org/2000/svg" width="38.84" height="38.84" viewBox="0 0 38.84 38.84">
  <path id="Trazado_3091" data-name="Trazado 3091" d="M19.42,38.84A19.42,19.42,0,1,1,38.84,19.42,19.441,19.441,0,0,1,19.42,38.84Zm0-36.412A16.992,16.992,0,1,0,36.412,19.42,17.011,17.011,0,0,0,19.42,2.427Zm0,0" fill="#212121"/>
  <path id="Trazado_3092" data-name="Trazado 3092" d="M249.71,123.584a1.2,1.2,0,0,1-.858-.356l-8.5-8.5a1.214,1.214,0,0,1-.356-.858V102.546a1.214,1.214,0,0,1,2.427,0v10.825l8.14,8.14a1.215,1.215,0,0,1-.858,2.073Zm0,0" transform="translate(-221.794 -93.645)" fill="#212121"/>
</svg>
