<?xml version="1.0" encoding="utf-8"?>
<!-- Generator: Adobe Illustrator 17.0.0, SVG Export Plug-In . SVG Version: 6.00 Build 0)  -->
<!DOCTYPE svg PUBLIC "-//W3C//DTD SVG 1.1//EN" "http://www.w3.org/Graphics/SVG/1.1/DTD/svg11.dtd">
<svg version="1.1" id="Capa_1" xmlns="http://www.w3.org/2000/svg" xmlns:xlink="http://www.w3.org/1999/xlink" x="0px" y="0px"
	 width="40px" height="40px" viewBox="0 0 40 40" enable-background="new 0 0 40 40" xml:space="preserve">
<g>
	<path d="M24.5,25V14.9c0-0.4-0.3-0.7-0.7-0.7s-0.7,0.3-0.7,0.7V25c-2.3,0.3-4.1,2.3-4.1,4.7c0,2.7,2.2,4.8,4.8,4.8
		c2.7,0,4.8-2.2,4.8-4.8C28.6,27.4,26.8,25.4,24.5,25z M23.8,33.1c-1.9,0-3.4-1.5-3.4-3.4c0-1.9,1.5-3.4,3.4-3.4
		c1.9,0,3.4,1.5,3.4,3.4C27.2,31.6,25.7,33.1,23.8,33.1z"/>
	<path d="M27.4,22.3V5.6c0-2-1.6-3.6-3.6-3.6s-3.6,1.6-3.6,3.6v16.8c-2.9,1.4-4.7,4.2-4.7,7.4c0,4.5,3.7,8.2,8.2,8.2
		s8.2-3.7,8.2-8.2C32,26.6,30.2,23.7,27.4,22.3z M23.8,36.6c-3.7,0-6.8-3.1-6.8-6.8c0-2.8,1.7-5.2,4.2-6.3c0.3-0.1,0.4-0.4,0.4-0.7
		V5.6c0-1.2,1-2.1,2.1-2.1c1.2,0,2.1,1,2.1,2.1v17.2c0,0.3,0.2,0.6,0.4,0.7c2.6,1.1,4.2,3.5,4.2,6.3C30.6,33.5,27.5,36.6,23.8,36.6z
		"/>
	<path d="M29,7.6h3.4c0.4,0,0.7-0.3,0.7-0.7s-0.3-0.7-0.7-0.7H29c-0.4,0-0.7,0.3-0.7,0.7S28.6,7.6,29,7.6z"/>
	<path d="M29,11h2.3c0.4,0,0.7-0.3,0.7-0.7s-0.3-0.7-0.7-0.7H29c-0.4,0-0.7,0.3-0.7,0.7S28.6,11,29,11z"/>
	<path d="M32.5,13H29c-0.4,0-0.7,0.3-0.7,0.7s0.3,0.7,0.7,0.7h3.4c0.4,0,0.7-0.3,0.7-0.7S32.9,13,32.5,13z"/>
	<path d="M29,17.9h2.3c0.4,0,0.7-0.3,0.7-0.7s-0.3-0.7-0.7-0.7H29c-0.4,0-0.7,0.3-0.7,0.7S28.6,17.9,29,17.9z"/>
	<path d="M32.5,19.9H29c-0.4,0-0.7,0.3-0.7,0.7s0.3,0.7,0.7,0.7h3.4c0.4,0,0.7-0.3,0.7-0.7S32.8,19.9,32.5,19.9z"/>
	<path d="M17.2,15.5c0-4.2-4.5-8.7-4.7-8.9c-0.3-0.3-0.7-0.3-1,0c-0.2,0.2-4.7,4.7-4.7,8.9c0,3,2.3,5.4,5.2,5.4
		C14.9,20.9,17.2,18.4,17.2,15.5z M12,19.4c-2.1,0-3.8-1.8-3.8-4c0-2.8,2.6-6.1,3.8-7.3c1.1,1.3,3.8,4.5,3.8,7.3
		C15.8,17.6,14.1,19.4,12,19.4z"/>
</g>
<line fill="none" x1="19" y1="23" x2="19" y2="23"/>
</svg>
